{
	"asset":{
		"generator":"Khronos glTF Blender I/O v4.1.63",
		"version":"2.0"
	},
	"scene":0,
	"scenes":[
		{
			"name":"Scene",
			"nodes":[
				0,
				1
			]
		}
	],
	"nodes":[
		{
			"mesh":0,
			"name":"base_link.dae",
			"rotation":[
				0.7071068286895752,
				0,
				0,
				0.7071068286895752
			]
		},
		{
			"mesh":1,
			"name":"base_link.dae.001",
			"rotation":[
				0.7071068286895752,
				0,
				0,
				0.7071068286895752
			]
		}
	],
	"materials":[
		{
			"doubleSided":true,
			"name":"blinn20",
			"pbrMetallicRoughness":{
				"baseColorFactor":[
					0.7529410123825073,
					0.7529410123825073,
					0.7529410123825073,
					1
				],
				"metallicFactor":0,
				"roughnessFactor":0.5
			}
		},
		{
			"doubleSided":true,
			"name":"blinn21",
			"pbrMetallicRoughness":{
				"baseColorFactor":[
					0.7529410123825073,
					0.7529410123825073,
					0.7529410123825073,
					1
				],
				"metallicFactor":0,
				"roughnessFactor":0.5
			}
		}
	],
	"meshes":[
		{
			"name":"base2_M1KShape0",
			"primitives":[
				{
					"attributes":{
						"POSITION":0,
						"NORMAL":1
					},
					"indices":2,
					"material":0
				}
			]
		},
		{
			"name":"base2_M1KShape1",
			"primitives":[
				{
					"attributes":{
						"POSITION":3,
						"NORMAL":4
					},
					"indices":5,
					"material":1
				}
			]
		}
	],
	"accessors":[
		{
			"bufferView":0,
			"componentType":5126,
			"count":1372,
			"max":[
				0.08151359856128693,
				0.09600000083446503,
				0.07999999821186066
			],
			"min":[
				-0.10098300129175186,
				-4.999999969612645e-09,
				-0.08146040141582489
			],
			"type":"VEC3"
		},
		{
			"bufferView":1,
			"componentType":5126,
			"count":1372,
			"type":"VEC3"
		},
		{
			"bufferView":2,
			"componentType":5123,
			"count":5901,
			"type":"SCALAR"
		},
		{
			"bufferView":3,
			"componentType":5126,
			"count":549,
			"max":[
				0.07284919917583466,
				0.10000000149011612,
				0.07280140370130539
			],
			"min":[
				-0.1080000028014183,
				0.001999499974772334,
				-0.07280140370130539
			],
			"type":"VEC3"
		},
		{
			"bufferView":4,
			"componentType":5126,
			"count":549,
			"type":"VEC3"
		},
		{
			"bufferView":5,
			"componentType":5123,
			"count":2472,
			"type":"SCALAR"
		}
	],
	"bufferViews":[
		{
			"buffer":0,
			"byteLength":16464,
			"byteOffset":0,
			"target":34962
		},
		{
			"buffer":0,
			"byteLength":16464,
			"byteOffset":16464,
			"target":34962
		},
		{
			"buffer":0,
			"byteLength":11802,
			"byteOffset":32928,
			"target":34963
		},
		{
			"buffer":0,
			"byteLength":6588,
			"byteOffset":44732,
			"target":34962
		},
		{
			"buffer":0,
			"byteLength":6588,
			"byteOffset":51320,
			"target":34962
		},
		{
			"buffer":0,
			"byteLength":4944,
			"byteOffset":57908,
			"target":34963
		}
	],
	"buffers":[
		{
			"byteLength":62852,
			"uri":"base_link.bin"
		}
	]
}
