{
	"asset":{
		"generator":"Khronos glTF Blender I/O v4.1.63",
		"version":"2.0"
	},
	"scene":0,
	"scenes":[
		{
			"name":"Scene",
			"nodes":[
				0
			]
		}
	],
	"nodes":[
		{
			"mesh":0,
			"name":"J2.dae",
			"rotation":[
				0.7071068286895752,
				0,
				0,
				0.7071068286895752
			]
		}
	],
	"materials":[
		{
			"doubleSided":true,
			"name":"blinn20",
			"pbrMetallicRoughness":{
				"baseColorFactor":[
					0.7529410123825073,
					0.7529410123825073,
					0.7529410123825073,
					1
				],
				"metallicFactor":0,
				"roughnessFactor":0.5
			}
		}
	],
	"meshes":[
		{
			"name":"base2_M1KShape0",
			"primitives":[
				{
					"attributes":{
						"POSITION":0,
						"NORMAL":1
					},
					"indices":2,
					"material":0
				}
			]
		}
	],
	"accessors":[
		{
			"bufferView":0,
			"componentType":5126,
			"count":473,
			"max":[
				0.07256569713354111,
				0.5725619792938232,
				-0.07700000703334808
			],
			"min":[
				-0.07256419956684113,
				-0.07259359955787659,
				-0.24786700308322906
			],
			"type":"VEC3"
		},
		{
			"bufferView":1,
			"componentType":5126,
			"count":473,
			"type":"VEC3"
		},
		{
			"bufferView":2,
			"componentType":5123,
			"count":2364,
			"type":"SCALAR"
		}
	],
	"bufferViews":[
		{
			"buffer":0,
			"byteLength":5676,
			"byteOffset":0,
			"target":34962
		},
		{
			"buffer":0,
			"byteLength":5676,
			"byteOffset":5676,
			"target":34962
		},
		{
			"buffer":0,
			"byteLength":4728,
			"byteOffset":11352,
			"target":34963
		}
	],
	"buffers":[
		{
			"byteLength":16080,
			"uri":"j2.bin"
		}
	]
}
