{
	"asset":{
		"generator":"Khronos glTF Blender I/O v4.1.63",
		"version":"2.0"
	},
	"scene":0,
	"scenes":[
		{
			"name":"Scene",
			"nodes":[
				0
			]
		}
	],
	"nodes":[
		{
			"mesh":0,
			"name":"J3.dae",
			"rotation":[
				0.7071068286895752,
				0,
				0,
				0.7071068286895752
			]
		}
	],
	"materials":[
		{
			"doubleSided":true,
			"name":"blinn20",
			"pbrMetallicRoughness":{
				"baseColorFactor":[
					0.7529410123825073,
					0.7529410123825073,
					0.7529410123825073,
					1
				],
				"metallicFactor":0,
				"roughnessFactor":0.5
			}
		}
	],
	"meshes":[
		{
			"name":"base2_M1KShape0",
			"primitives":[
				{
					"attributes":{
						"POSITION":0,
						"NORMAL":1
					},
					"indices":2,
					"material":0
				}
			]
		}
	],
	"accessors":[
		{
			"bufferView":0,
			"componentType":5126,
			"count":239,
			"max":[
				0.0635003000497818,
				0.3012999892234802,
				0.08401329815387726
			],
			"min":[
				-0.0635003000497818,
				-0.06363700330257416,
				-0.0754999965429306
			],
			"type":"VEC3"
		},
		{
			"bufferView":1,
			"componentType":5126,
			"count":239,
			"type":"VEC3"
		},
		{
			"bufferView":2,
			"componentType":5123,
			"count":1230,
			"type":"SCALAR"
		}
	],
	"bufferViews":[
		{
			"buffer":0,
			"byteLength":2868,
			"byteOffset":0,
			"target":34962
		},
		{
			"buffer":0,
			"byteLength":2868,
			"byteOffset":2868,
			"target":34962
		},
		{
			"buffer":0,
			"byteLength":2460,
			"byteOffset":5736,
			"target":34963
		}
	],
	"buffers":[
		{
			"byteLength":8196,
			"uri":"j3.bin"
		}
	]
}
