{
	"asset":{
		"generator":"Khronos glTF Blender I/O v4.1.63",
		"version":"2.0"
	},
	"scene":0,
	"scenes":[
		{
			"name":"Scene",
			"nodes":[
				0
			]
		}
	],
	"nodes":[
		{
			"mesh":0,
			"name":"J5.dae",
			"rotation":[
				0.7071068286895752,
				0,
				0,
				0.7071068286895752
			]
		}
	],
	"materials":[
		{
			"doubleSided":true,
			"name":"blinn20",
			"pbrMetallicRoughness":{
				"baseColorFactor":[
					0.7529410123825073,
					0.7529410123825073,
					0.7529410123825073,
					1
				],
				"metallicFactor":0,
				"roughnessFactor":0.5
			}
		}
	],
	"meshes":[
		{
			"name":"base2_M1KShape0",
			"primitives":[
				{
					"attributes":{
						"POSITION":0,
						"NORMAL":1
					},
					"indices":2,
					"material":0
				}
			]
		}
	],
	"accessors":[
		{
			"bufferView":0,
			"componentType":5126,
			"count":514,
			"max":[
				0.05261499807238579,
				0.08049999922513962,
				-0.04874999821186066
			],
			"min":[
				-0.0523453988134861,
				-0.048680100589990616,
				-0.16867800056934357
			],
			"type":"VEC3"
		},
		{
			"bufferView":1,
			"componentType":5126,
			"count":514,
			"type":"VEC3"
		},
		{
			"bufferView":2,
			"componentType":5123,
			"count":2610,
			"type":"SCALAR"
		}
	],
	"bufferViews":[
		{
			"buffer":0,
			"byteLength":6168,
			"byteOffset":0,
			"target":34962
		},
		{
			"buffer":0,
			"byteLength":6168,
			"byteOffset":6168,
			"target":34962
		},
		{
			"buffer":0,
			"byteLength":5220,
			"byteOffset":12336,
			"target":34963
		}
	],
	"buffers":[
		{
			"byteLength":17556,
			"uri":"j5.bin"
		}
	]
}
