{
	"asset":{
		"generator":"Khronos glTF Blender I/O v4.1.63",
		"version":"2.0"
	},
	"scene":0,
	"scenes":[
		{
			"name":"Scene",
			"nodes":[
				0,
				1
			]
		}
	],
	"nodes":[
		{
			"mesh":0,
			"name":"J6.dae",
			"rotation":[
				0.7071068286895752,
				0,
				0,
				0.7071068286895752
			]
		},
		{
			"mesh":1,
			"name":"J6.dae.001",
			"rotation":[
				0.7071068286895752,
				0,
				0,
				0.7071068286895752
			]
		}
	],
	"materials":[
		{
			"doubleSided":true,
			"name":"blinn20",
			"pbrMetallicRoughness":{
				"baseColorFactor":[
					0.20000000298023224,
					0.20000000298023224,
					0.20000000298023224,
					1
				],
				"metallicFactor":0,
				"roughnessFactor":0.5
			}
		},
		{
			"doubleSided":true,
			"name":"blinn21",
			"pbrMetallicRoughness":{
				"baseColorFactor":[
					0.20000000298023224,
					0.20000000298023224,
					0.20000000298023224,
					1
				],
				"metallicFactor":0,
				"roughnessFactor":0.5
			}
		}
	],
	"meshes":[
		{
			"name":"base2_M1KShape0",
			"primitives":[
				{
					"attributes":{
						"POSITION":0,
						"NORMAL":1
					},
					"indices":2,
					"material":0
				}
			]
		},
		{
			"name":"base2_M1KShape1",
			"primitives":[
				{
					"attributes":{
						"POSITION":3,
						"NORMAL":4
					},
					"indices":5,
					"material":1
				}
			]
		}
	],
	"accessors":[
		{
			"bufferView":0,
			"componentType":5126,
			"count":813,
			"max":[
				0.04756370186805725,
				-0.006500009912997484,
				0.04749999940395355
			],
			"min":[
				-0.04749559983611107,
				-0.08949999511241913,
				-0.04749999940395355
			],
			"type":"VEC3"
		},
		{
			"bufferView":1,
			"componentType":5126,
			"count":813,
			"type":"VEC3"
		},
		{
			"bufferView":2,
			"componentType":5123,
			"count":2826,
			"type":"SCALAR"
		},
		{
			"bufferView":3,
			"componentType":5126,
			"count":462,
			"max":[
				0.04500000178813934,
				0,
				0.04500000178813934
			],
			"min":[
				-0.04500000178813934,
				-0.011500000022351742,
				-0.04500000178813934
			],
			"type":"VEC3"
		},
		{
			"bufferView":4,
			"componentType":5126,
			"count":462,
			"type":"VEC3"
		},
		{
			"bufferView":5,
			"componentType":5123,
			"count":1578,
			"type":"SCALAR"
		}
	],
	"bufferViews":[
		{
			"buffer":0,
			"byteLength":9756,
			"byteOffset":0,
			"target":34962
		},
		{
			"buffer":0,
			"byteLength":9756,
			"byteOffset":9756,
			"target":34962
		},
		{
			"buffer":0,
			"byteLength":5652,
			"byteOffset":19512,
			"target":34963
		},
		{
			"buffer":0,
			"byteLength":5544,
			"byteOffset":25164,
			"target":34962
		},
		{
			"buffer":0,
			"byteLength":5544,
			"byteOffset":30708,
			"target":34962
		},
		{
			"buffer":0,
			"byteLength":3156,
			"byteOffset":36252,
			"target":34963
		}
	],
	"buffers":[
		{
			"byteLength":39408,
			"uri":"j6.bin"
		}
	]
}
