{
	"asset":{
		"generator":"Khronos glTF Blender I/O v4.1.63",
		"version":"2.0"
	},
	"scene":0,
	"scenes":[
		{
			"name":"Scene",
			"nodes":[
				3
			]
		}
	],
	"nodes":[
		{
			"mesh":0,
			"name":"Zu 5 06_\u012c\u024f",
			"rotation":[
				0,
				0,
				-0.9784585237503052,
				0.2064438760280609
			],
			"translation":[
				0.6485404968261719,
				-0.06917771697044373,
				-0.006999999284744263
			]
		},
		{
			"mesh":1,
			"name":"Zu 5 06_\u012c\u024f001",
			"rotation":[
				0,
				0,
				-0.9784585237503052,
				0.2064438760280609
			],
			"translation":[
				0.6485404968261719,
				-0.06917771697044373,
				-0.006999999284744263
			]
		},
		{
			"children":[
				0,
				1
			],
			"name":"Zu 5 06_\u012c\u024f002"
		},
		{
			"children":[
				2
			],
			"name":"Zu 5 210907",
			"translation":[
				-0.7985000014305115,
				-0.006500000134110451,
				0.04600000008940697
			]
		}
	],
	"materials":[
		{
			"doubleSided":true,
			"name":"mat_0",
			"pbrMetallicRoughness":{
				"baseColorFactor":[
					0.68668532371521,
					0.68668532371521,
					0.68668532371521,
					1
				],
				"metallicFactor":0
			}
		},
		{
			"doubleSided":true,
			"name":"mat_1",
			"pbrMetallicRoughness":{
				"baseColorFactor":[
					0.024157634004950523,
					0.024157634004950523,
					0.024157634004950523,
					1
				]
			}
		}
	],
	"meshes":[
		{
			"name":"Zu 5 06_\u012c\u024f",
			"primitives":[
				{
					"attributes":{
						"POSITION":0,
						"NORMAL":1
					},
					"indices":2,
					"material":0
				}
			]
		},
		{
			"name":"Zu 5 06_\u012c\u024f001",
			"primitives":[
				{
					"attributes":{
						"POSITION":3,
						"NORMAL":4
					},
					"indices":5,
					"material":1
				},
				{
					"attributes":{
						"POSITION":6,
						"NORMAL":7
					},
					"indices":8,
					"material":0
				}
			]
		}
	],
	"accessors":[
		{
			"bufferView":0,
			"componentType":5126,
			"count":3730,
			"max":[
				-0.12733036279678345,
				0.03170819953083992,
				1.5987210866387985e-17
			],
			"min":[
				-0.20828647911548615,
				-0.04947410523891449,
				-0.039000000804662704
			],
			"type":"VEC3"
		},
		{
			"bufferView":1,
			"componentType":5126,
			"count":3730,
			"type":"VEC3"
		},
		{
			"bufferView":2,
			"componentType":5123,
			"count":13782,
			"type":"SCALAR"
		},
		{
			"bufferView":3,
			"componentType":5126,
			"count":1598,
			"max":[
				-0.1486833542585373,
				0.02985495701432228,
				-0.024207189679145813
			],
			"min":[
				-0.1565673053264618,
				0.021292340010404587,
				-0.02979281172156334
			],
			"type":"VEC3"
		},
		{
			"bufferView":4,
			"componentType":5126,
			"count":1598,
			"type":"VEC3"
		},
		{
			"bufferView":5,
			"componentType":5123,
			"count":2949,
			"type":"SCALAR"
		},
		{
			"bufferView":6,
			"componentType":5126,
			"count":501,
			"max":[
				-0.14702457189559937,
				0.030304601415991783,
				-0.02199999988079071
			],
			"min":[
				-0.16016200184822083,
				0.018170064315199852,
				-0.03200000151991844
			],
			"type":"VEC3"
		},
		{
			"bufferView":7,
			"componentType":5126,
			"count":501,
			"type":"VEC3"
		},
		{
			"bufferView":8,
			"componentType":5123,
			"count":1371,
			"type":"SCALAR"
		}
	],
	"bufferViews":[
		{
			"buffer":0,
			"byteLength":44760,
			"byteOffset":0,
			"target":34962
		},
		{
			"buffer":0,
			"byteLength":44760,
			"byteOffset":44760,
			"target":34962
		},
		{
			"buffer":0,
			"byteLength":27564,
			"byteOffset":89520,
			"target":34963
		},
		{
			"buffer":0,
			"byteLength":19176,
			"byteOffset":117084,
			"target":34962
		},
		{
			"buffer":0,
			"byteLength":19176,
			"byteOffset":136260,
			"target":34962
		},
		{
			"buffer":0,
			"byteLength":5898,
			"byteOffset":155436,
			"target":34963
		},
		{
			"buffer":0,
			"byteLength":6012,
			"byteOffset":161336,
			"target":34962
		},
		{
			"buffer":0,
			"byteLength":6012,
			"byteOffset":167348,
			"target":34962
		},
		{
			"buffer":0,
			"byteLength":2742,
			"byteOffset":173360,
			"target":34963
		}
	],
	"buffers":[
		{
			"byteLength":176104,
			"uri":"JAKA_Zu_5_J6.bin"
		}
	]
}
