{
	"asset":{
		"generator":"Khronos glTF Blender I/O v4.1.63",
		"version":"2.0"
	},
	"scene":0,
	"scenes":[
		{
			"name":"Scene",
			"nodes":[
				4
			]
		}
	],
	"nodes":[
		{
			"mesh":0,
			"name":"Zu 5 00_\u012c\u024f",
			"rotation":[
				0.70710688829422,
				0,
				0,
				0.7071066498756409
			]
		},
		{
			"mesh":1,
			"name":"Zu 5 00_\u012c\u024f001",
			"rotation":[
				0.70710688829422,
				0,
				0,
				0.7071066498756409
			]
		},
		{
			"mesh":2,
			"name":"Zu 5 00_\u012c\u024f002",
			"rotation":[
				0.70710688829422,
				0,
				0,
				0.7071066498756409
			]
		},
		{
			"children":[
				0,
				1,
				2
			],
			"name":"Zu 5 00_\u012c\u024f003"
		},
		{
			"children":[
				3
			],
			"name":"Zu 5 210907"
		}
	],
	"materials":[
		{
			"doubleSided":true,
			"name":"mat_0",
			"pbrMetallicRoughness":{
				"baseColorFactor":[
					0.6038273572921753,
					0.6038273572921753,
					0.6038273572921753,
					1
				],
				"metallicFactor":0
			}
		},
		{
			"doubleSided":true,
			"name":"mat_1",
			"pbrMetallicRoughness":{
				"baseColorFactor":[
					0.16826939582824707,
					0.16826939582824707,
					0.16826939582824707,
					1
				],
				"metallicFactor":0
			}
		},
		{
			"doubleSided":true,
			"name":"mat_2",
			"pbrMetallicRoughness":{
				"baseColorFactor":[
					0.024157634004950523,
					0.024157634004950523,
					0.024157634004950523,
					1
				],
				"metallicFactor":0
			}
		}
	],
	"meshes":[
		{
			"name":"Zu 5 00_\u012c\u024f",
			"primitives":[
				{
					"attributes":{
						"POSITION":0,
						"NORMAL":1
					},
					"indices":2,
					"material":0
				}
			]
		},
		{
			"name":"Zu 5 00_\u012c\u024f001",
			"primitives":[
				{
					"attributes":{
						"POSITION":3,
						"NORMAL":4
					},
					"indices":5,
					"material":0
				}
			]
		},
		{
			"name":"Zu 5 00_\u012c\u024f002",
			"primitives":[
				{
					"attributes":{
						"POSITION":6,
						"NORMAL":7
					},
					"indices":8,
					"material":1
				},
				{
					"attributes":{
						"POSITION":9,
						"NORMAL":10
					},
					"indices":11,
					"material":2
				}
			]
		}
	],
	"accessors":[
		{
			"bufferView":0,
			"componentType":5126,
			"count":6805,
			"max":[
				0.0820000022649765,
				0.07900000363588333,
				7.77156120546332e-18
			],
			"min":[
				-0.0820000022649765,
				-0.07900000363588333,
				-0.03999999910593033
			],
			"type":"VEC3"
		},
		{
			"bufferView":1,
			"componentType":5126,
			"count":6805,
			"type":"VEC3"
		},
		{
			"bufferView":2,
			"componentType":5123,
			"count":26391,
			"type":"SCALAR"
		},
		{
			"bufferView":3,
			"componentType":5126,
			"count":5988,
			"max":[
				0.1295660436153412,
				0.021517515182495117,
				-0.001449999981559813
			],
			"min":[
				0.09389960020780563,
				-0.007600000128149986,
				-0.037050001323223114
			],
			"type":"VEC3"
		},
		{
			"bufferView":4,
			"componentType":5126,
			"count":5988,
			"type":"VEC3"
		},
		{
			"bufferView":5,
			"componentType":5123,
			"count":18336,
			"type":"SCALAR"
		},
		{
			"bufferView":6,
			"componentType":5126,
			"count":2812,
			"max":[
				0.10599999874830246,
				0.019972609356045723,
				-0.002950000111013651
			],
			"min":[
				0.08399974554777145,
				-0.019972609356045723,
				-0.03554999828338623
			],
			"type":"VEC3"
		},
		{
			"bufferView":7,
			"componentType":5126,
			"count":2812,
			"type":"VEC3"
		},
		{
			"bufferView":8,
			"componentType":5123,
			"count":8448,
			"type":"SCALAR"
		},
		{
			"bufferView":9,
			"componentType":5126,
			"count":176,
			"max":[
				0.08560000360012054,
				0.0210999995470047,
				-0.004149999935179949
			],
			"min":[
				0.0820000022649765,
				-0.0210999995470047,
				-0.03435000032186508
			],
			"type":"VEC3"
		},
		{
			"bufferView":10,
			"componentType":5126,
			"count":176,
			"type":"VEC3"
		},
		{
			"bufferView":11,
			"componentType":5123,
			"count":456,
			"type":"SCALAR"
		}
	],
	"bufferViews":[
		{
			"buffer":0,
			"byteLength":81660,
			"byteOffset":0,
			"target":34962
		},
		{
			"buffer":0,
			"byteLength":81660,
			"byteOffset":81660,
			"target":34962
		},
		{
			"buffer":0,
			"byteLength":52782,
			"byteOffset":163320,
			"target":34963
		},
		{
			"buffer":0,
			"byteLength":71856,
			"byteOffset":216104,
			"target":34962
		},
		{
			"buffer":0,
			"byteLength":71856,
			"byteOffset":287960,
			"target":34962
		},
		{
			"buffer":0,
			"byteLength":36672,
			"byteOffset":359816,
			"target":34963
		},
		{
			"buffer":0,
			"byteLength":33744,
			"byteOffset":396488,
			"target":34962
		},
		{
			"buffer":0,
			"byteLength":33744,
			"byteOffset":430232,
			"target":34962
		},
		{
			"buffer":0,
			"byteLength":16896,
			"byteOffset":463976,
			"target":34963
		},
		{
			"buffer":0,
			"byteLength":2112,
			"byteOffset":480872,
			"target":34962
		},
		{
			"buffer":0,
			"byteLength":2112,
			"byteOffset":482984,
			"target":34962
		},
		{
			"buffer":0,
			"byteLength":912,
			"byteOffset":485096,
			"target":34963
		}
	],
	"buffers":[
		{
			"byteLength":486008,
			"uri":"JAKA_Zu_5_BASE.bin"
		}
	]
}
