{
	"asset":{
		"generator":"Khronos glTF Blender I/O v4.1.63",
		"version":"2.0"
	},
	"scene":0,
	"scenes":[
		{
			"name":"Scene",
			"nodes":[
				4
			]
		}
	],
	"nodes":[
		{
			"mesh":0,
			"name":"Zu 5 02_\u012c\u024f",
			"translation":[
				-0.007147914730012417,
				-0.034641288220882416,
				-0.06960803270339966
			]
		},
		{
			"mesh":1,
			"name":"Zu 5 02_\u012c\u024f001",
			"translation":[
				-0.007147914730012417,
				-0.034641288220882416,
				-0.06960803270339966
			]
		},
		{
			"mesh":2,
			"name":"Zu 5 02_\u012c\u024f002",
			"translation":[
				-0.007147914730012417,
				-0.034641288220882416,
				-0.06960803270339966
			]
		},
		{
			"children":[
				0,
				1,
				2
			],
			"name":"Zu 5 02_\u012c\u024f003"
		},
		{
			"children":[
				3
			],
			"name":"Zu 5 210907",
			"translation":[
				0,
				-0.11999998241662979,
				0
			]
		}
	],
	"materials":[
		{
			"doubleSided":true,
			"name":"mat_0",
			"pbrMetallicRoughness":{
				"baseColorFactor":[
					1,
					0,
					0,
					1
				],
				"metallicFactor":0
			}
		},
		{
			"doubleSided":true,
			"name":"mat_1",
			"pbrMetallicRoughness":{
				"baseColorFactor":[
					0.68668532371521,
					0.68668532371521,
					0.68668532371521,
					1
				],
				"metallicFactor":0
			}
		},
		{
			"doubleSided":true,
			"name":"mat_2",
			"pbrMetallicRoughness":{
				"baseColorFactor":[
					0.5906188488006592,
					0.6375969052314758,
					0.8549926280975342,
					1
				],
				"metallicFactor":0
			}
		}
	],
	"meshes":[
		{
			"name":"Zu 5 02_\u012c\u024f",
			"primitives":[
				{
					"attributes":{
						"POSITION":0,
						"NORMAL":1
					},
					"indices":2,
					"material":0
				},
				{
					"attributes":{
						"POSITION":3,
						"NORMAL":4
					},
					"indices":5,
					"material":1
				},
				{
					"attributes":{
						"POSITION":6,
						"NORMAL":7
					},
					"indices":8,
					"material":2
				}
			]
		},
		{
			"name":"Zu 5 02_\u012c\u024f001",
			"primitives":[
				{
					"attributes":{
						"POSITION":9,
						"NORMAL":10
					},
					"indices":11,
					"material":1
				},
				{
					"attributes":{
						"POSITION":12,
						"NORMAL":13
					},
					"indices":14,
					"material":0
				}
			]
		},
		{
			"name":"Zu 5 02_\u012c\u024f002",
			"primitives":[
				{
					"attributes":{
						"POSITION":15,
						"NORMAL":16
					},
					"indices":17,
					"material":0
				},
				{
					"attributes":{
						"POSITION":18,
						"NORMAL":19
					},
					"indices":20,
					"material":1
				},
				{
					"attributes":{
						"POSITION":21,
						"NORMAL":22
					},
					"indices":23,
					"material":2
				}
			]
		}
	],
	"accessors":[
		{
			"bufferView":0,
			"componentType":5126,
			"count":1146,
			"max":[
				0.07114791125059128,
				0.21730178594589233,
				-0.011041945777833462
			],
			"min":[
				-0.05536244064569473,
				0.09228107333183289,
				-0.15004195272922516
			],
			"type":"VEC3"
		},
		{
			"bufferView":1,
			"componentType":5126,
			"count":1146,
			"type":"VEC3"
		},
		{
			"bufferView":2,
			"componentType":5123,
			"count":5391,
			"type":"SCALAR"
		},
		{
			"bufferView":3,
			"componentType":5126,
			"count":3578,
			"max":[
				0.07114791125059128,
				0.21575817465782166,
				0.005608034320175648
			],
			"min":[
				-0.05446147173643112,
				0.09383772313594818,
				-0.15204176306724548
			],
			"type":"VEC3"
		},
		{
			"bufferView":4,
			"componentType":5126,
			"count":3578,
			"type":"VEC3"
		},
		{
			"bufferView":5,
			"componentType":5123,
			"count":13536,
			"type":"SCALAR"
		},
		{
			"bufferView":6,
			"componentType":5126,
			"count":220,
			"max":[
				0.06614791601896286,
				0.21379126608371735,
				-0.010841965675354004
			],
			"min":[
				-0.05185208469629288,
				0.0957912728190422,
				-0.13704194128513336
			],
			"type":"VEC3"
		},
		{
			"bufferView":7,
			"componentType":5126,
			"count":220,
			"type":"VEC3"
		},
		{
			"bufferView":8,
			"componentType":5123,
			"count":528,
			"type":"SCALAR"
		},
		{
			"bufferView":9,
			"componentType":5126,
			"count":6782,
			"max":[
				0.3731479048728943,
				0.21379026770591736,
				-0.01554194651544094
			],
			"min":[
				0.07114791125059128,
				0.0957922711968422,
				-0.13354194164276123
			],
			"type":"VEC3"
		},
		{
			"bufferView":10,
			"componentType":5126,
			"count":6782,
			"type":"VEC3"
		},
		{
			"bufferView":11,
			"componentType":5123,
			"count":25098,
			"type":"SCALAR"
		},
		{
			"bufferView":12,
			"componentType":5126,
			"count":638,
			"max":[
				0.27584308385849,
				0.15748877823352814,
				-0.11634194850921631
			],
			"min":[
				0.16889463365077972,
				0.15219353139400482,
				-0.11634194850921631
			],
			"type":"VEC3"
		},
		{
			"bufferView":13,
			"componentType":5126,
			"count":638,
			"type":"VEC3"
		},
		{
			"bufferView":14,
			"componentType":5123,
			"count":1458,
			"type":"SCALAR"
		},
		{
			"bufferView":15,
			"componentType":5126,
			"count":1149,
			"max":[
				0.4996582567691803,
				0.21730147302150726,
				-0.011041945777833462
			],
			"min":[
				0.3731479048728943,
				0.09228076785802841,
				-0.15004195272922516
			],
			"type":"VEC3"
		},
		{
			"bufferView":16,
			"componentType":5126,
			"count":1149,
			"type":"VEC3"
		},
		{
			"bufferView":17,
			"componentType":5123,
			"count":5391,
			"type":"SCALAR"
		},
		{
			"bufferView":18,
			"componentType":5126,
			"count":3626,
			"max":[
				0.4987573027610779,
				0.21574482321739197,
				0.005608034320175648
			],
			"min":[
				0.3731479048728943,
				0.09382437914609909,
				-0.15204176306724548
			],
			"type":"VEC3"
		},
		{
			"bufferView":19,
			"componentType":5126,
			"count":3626,
			"type":"VEC3"
		},
		{
			"bufferView":20,
			"componentType":5123,
			"count":13536,
			"type":"SCALAR"
		},
		{
			"bufferView":21,
			"componentType":5126,
			"count":195,
			"max":[
				0.49614790081977844,
				0.21379126608371735,
				-0.010841965675354004
			],
			"min":[
				0.3781479001045227,
				0.0957912728190422,
				-0.13704194128513336
			],
			"type":"VEC3"
		},
		{
			"bufferView":22,
			"componentType":5126,
			"count":195,
			"type":"VEC3"
		},
		{
			"bufferView":23,
			"componentType":5123,
			"count":528,
			"type":"SCALAR"
		}
	],
	"bufferViews":[
		{
			"buffer":0,
			"byteLength":13752,
			"byteOffset":0,
			"target":34962
		},
		{
			"buffer":0,
			"byteLength":13752,
			"byteOffset":13752,
			"target":34962
		},
		{
			"buffer":0,
			"byteLength":10782,
			"byteOffset":27504,
			"target":34963
		},
		{
			"buffer":0,
			"byteLength":42936,
			"byteOffset":38288,
			"target":34962
		},
		{
			"buffer":0,
			"byteLength":42936,
			"byteOffset":81224,
			"target":34962
		},
		{
			"buffer":0,
			"byteLength":27072,
			"byteOffset":124160,
			"target":34963
		},
		{
			"buffer":0,
			"byteLength":2640,
			"byteOffset":151232,
			"target":34962
		},
		{
			"buffer":0,
			"byteLength":2640,
			"byteOffset":153872,
			"target":34962
		},
		{
			"buffer":0,
			"byteLength":1056,
			"byteOffset":156512,
			"target":34963
		},
		{
			"buffer":0,
			"byteLength":81384,
			"byteOffset":157568,
			"target":34962
		},
		{
			"buffer":0,
			"byteLength":81384,
			"byteOffset":238952,
			"target":34962
		},
		{
			"buffer":0,
			"byteLength":50196,
			"byteOffset":320336,
			"target":34963
		},
		{
			"buffer":0,
			"byteLength":7656,
			"byteOffset":370532,
			"target":34962
		},
		{
			"buffer":0,
			"byteLength":7656,
			"byteOffset":378188,
			"target":34962
		},
		{
			"buffer":0,
			"byteLength":2916,
			"byteOffset":385844,
			"target":34963
		},
		{
			"buffer":0,
			"byteLength":13788,
			"byteOffset":388760,
			"target":34962
		},
		{
			"buffer":0,
			"byteLength":13788,
			"byteOffset":402548,
			"target":34962
		},
		{
			"buffer":0,
			"byteLength":10782,
			"byteOffset":416336,
			"target":34963
		},
		{
			"buffer":0,
			"byteLength":43512,
			"byteOffset":427120,
			"target":34962
		},
		{
			"buffer":0,
			"byteLength":43512,
			"byteOffset":470632,
			"target":34962
		},
		{
			"buffer":0,
			"byteLength":27072,
			"byteOffset":514144,
			"target":34963
		},
		{
			"buffer":0,
			"byteLength":2340,
			"byteOffset":541216,
			"target":34962
		},
		{
			"buffer":0,
			"byteLength":2340,
			"byteOffset":543556,
			"target":34962
		},
		{
			"buffer":0,
			"byteLength":1056,
			"byteOffset":545896,
			"target":34963
		}
	],
	"buffers":[
		{
			"byteLength":546952,
			"uri":"JAKA_Zu_5_J2.bin"
		}
	]
}
