{
	"asset":{
		"generator":"Khronos glTF Blender I/O v4.1.63",
		"version":"2.0"
	},
	"scene":0,
	"scenes":[
		{
			"name":"Scene",
			"nodes":[
				3
			]
		}
	],
	"nodes":[
		{
			"mesh":0,
			"name":"Zu 5 05_\u012c\u024f",
			"rotation":[
				0,
				0,
				0.7071068286895752,
				0.7071067094802856
			],
			"translation":[
				0.7985022664070129,
				0.006638132035732269,
				-0.04599999636411667
			]
		},
		{
			"mesh":1,
			"name":"Zu 5 05_\u012c\u024f001",
			"rotation":[
				0,
				0,
				0.7071068286895752,
				0.7071067094802856
			],
			"translation":[
				0.7985022664070129,
				0.006638132035732269,
				-0.04599999636411667
			]
		},
		{
			"children":[
				0,
				1
			],
			"name":"Zu 5 05_\u012c\u024f002"
		},
		{
			"children":[
				2
			],
			"name":"Zu 5 210907",
			"translation":[
				-0.7985000014305115,
				-0.052000001072883606,
				0.11400000005960464
			]
		}
	],
	"materials":[
		{
			"doubleSided":true,
			"name":"mat_0",
			"pbrMetallicRoughness":{
				"baseColorFactor":[
					1,
					0,
					0,
					1
				],
				"metallicFactor":0
			}
		},
		{
			"doubleSided":true,
			"name":"mat_1",
			"pbrMetallicRoughness":{
				"baseColorFactor":[
					0.68668532371521,
					0.68668532371521,
					0.68668532371521,
					1
				],
				"metallicFactor":0
			}
		},
		{
			"doubleSided":true,
			"name":"mat_2",
			"pbrMetallicRoughness":{
				"baseColorFactor":[
					0,
					1,
					0,
					1
				],
				"metallicFactor":0
			}
		},
		{
			"doubleSided":true,
			"name":"mat_3",
			"pbrMetallicRoughness":{
				"baseColorFactor":[
					0.024157634004950523,
					0.024157634004950523,
					0.024157634004950523,
					1
				]
			}
		}
	],
	"meshes":[
		{
			"name":"Zu 5 05_\u012c\u024f",
			"primitives":[
				{
					"attributes":{
						"POSITION":0,
						"NORMAL":1
					},
					"indices":2,
					"material":0
				},
				{
					"attributes":{
						"POSITION":3,
						"NORMAL":4
					},
					"indices":5,
					"material":1
				},
				{
					"attributes":{
						"POSITION":6,
						"NORMAL":7
					},
					"indices":8,
					"material":2
				}
			]
		},
		{
			"name":"Zu 5 05_\u012c\u024f001",
			"primitives":[
				{
					"attributes":{
						"POSITION":9,
						"NORMAL":10
					},
					"indices":11,
					"material":1
				},
				{
					"attributes":{
						"POSITION":12,
						"NORMAL":13
					},
					"indices":14,
					"material":3
				}
			]
		}
	],
	"accessors":[
		{
			"bufferView":0,
			"componentType":5126,
			"count":1026,
			"max":[
				0.045499999076128006,
				0.0421772375702858,
				-0.013000000268220901
			],
			"min":[
				-0.042157746851444244,
				-0.04216700419783592,
				-0.11411099880933762
			],
			"type":"VEC3"
		},
		{
			"bufferView":1,
			"componentType":5126,
			"count":1026,
			"type":"VEC3"
		},
		{
			"bufferView":2,
			"componentType":5123,
			"count":5034,
			"type":"SCALAR"
		},
		{
			"bufferView":3,
			"componentType":5126,
			"count":2355,
			"max":[
				0.045499999076128006,
				0.04091230034828186,
				0
			],
			"min":[
				-0.04146235063672066,
				-0.04089212045073509,
				-0.1430833488702774
			],
			"type":"VEC3"
		},
		{
			"bufferView":4,
			"componentType":5126,
			"count":2355,
			"type":"VEC3"
		},
		{
			"bufferView":5,
			"componentType":5123,
			"count":9606,
			"type":"SCALAR"
		},
		{
			"bufferView":6,
			"componentType":5126,
			"count":892,
			"max":[
				0.04038403183221817,
				0.04038403183221817,
				-0.13661374151706696
			],
			"min":[
				-0.04038403183221817,
				-0.04038403183221817,
				-0.1430099755525589
			],
			"type":"VEC3"
		},
		{
			"bufferView":7,
			"componentType":5126,
			"count":892,
			"type":"VEC3"
		},
		{
			"bufferView":8,
			"componentType":5123,
			"count":4686,
			"type":"SCALAR"
		},
		{
			"bufferView":9,
			"componentType":5126,
			"count":1371,
			"max":[
				0.023819388821721077,
				0.02384999953210354,
				-0.14100000262260437
			],
			"min":[
				-0.023819388821721077,
				-0.02384999953210354,
				-0.14300000667572021
			],
			"type":"VEC3"
		},
		{
			"bufferView":10,
			"componentType":5126,
			"count":1371,
			"type":"VEC3"
		},
		{
			"bufferView":11,
			"componentType":5123,
			"count":3210,
			"type":"SCALAR"
		},
		{
			"bufferView":12,
			"componentType":5126,
			"count":355,
			"max":[
				0.023819388821721077,
				0.02384999953210354,
				-0.14300000667572021
			],
			"min":[
				-0.023819388821721077,
				-0.02384999953210354,
				-0.14300000667572021
			],
			"type":"VEC3"
		},
		{
			"bufferView":13,
			"componentType":5126,
			"count":355,
			"type":"VEC3"
		},
		{
			"bufferView":14,
			"componentType":5123,
			"count":810,
			"type":"SCALAR"
		}
	],
	"bufferViews":[
		{
			"buffer":0,
			"byteLength":12312,
			"byteOffset":0,
			"target":34962
		},
		{
			"buffer":0,
			"byteLength":12312,
			"byteOffset":12312,
			"target":34962
		},
		{
			"buffer":0,
			"byteLength":10068,
			"byteOffset":24624,
			"target":34963
		},
		{
			"buffer":0,
			"byteLength":28260,
			"byteOffset":34692,
			"target":34962
		},
		{
			"buffer":0,
			"byteLength":28260,
			"byteOffset":62952,
			"target":34962
		},
		{
			"buffer":0,
			"byteLength":19212,
			"byteOffset":91212,
			"target":34963
		},
		{
			"buffer":0,
			"byteLength":10704,
			"byteOffset":110424,
			"target":34962
		},
		{
			"buffer":0,
			"byteLength":10704,
			"byteOffset":121128,
			"target":34962
		},
		{
			"buffer":0,
			"byteLength":9372,
			"byteOffset":131832,
			"target":34963
		},
		{
			"buffer":0,
			"byteLength":16452,
			"byteOffset":141204,
			"target":34962
		},
		{
			"buffer":0,
			"byteLength":16452,
			"byteOffset":157656,
			"target":34962
		},
		{
			"buffer":0,
			"byteLength":6420,
			"byteOffset":174108,
			"target":34963
		},
		{
			"buffer":0,
			"byteLength":4260,
			"byteOffset":180528,
			"target":34962
		},
		{
			"buffer":0,
			"byteLength":4260,
			"byteOffset":184788,
			"target":34962
		},
		{
			"buffer":0,
			"byteLength":1620,
			"byteOffset":189048,
			"target":34963
		}
	],
	"buffers":[
		{
			"byteLength":190668,
			"uri":"JAKA_Zu_5_J5.bin"
		}
	]
}
