{
	"asset":{
		"generator":"Khronos glTF Blender I/O v4.1.63",
		"version":"2.0"
	},
	"scene":0,
	"scenes":[
		{
			"name":"Scene",
			"nodes":[
				1
			]
		}
	],
	"nodes":[
		{
			"mesh":0,
			"name":"Zu 5 01_\u012c\u024f",
			"rotation":[
				0.5,
				0.5,
				-0.5,
				0.5
			],
			"translation":[
				0,
				0.03999999910593033,
				0
			]
		},
		{
			"children":[
				0
			],
			"name":"Zu 5 210907"
		}
	],
	"materials":[
		{
			"doubleSided":true,
			"name":"mat_0",
			"pbrMetallicRoughness":{
				"baseColorFactor":[
					1,
					0,
					0,
					1
				],
				"metallicFactor":0
			}
		},
		{
			"doubleSided":true,
			"name":"mat_1",
			"pbrMetallicRoughness":{
				"baseColorFactor":[
					0.68668532371521,
					0.68668532371521,
					0.68668532371521,
					1
				],
				"metallicFactor":0
			}
		}
	],
	"meshes":[
		{
			"name":"Zu 5 01_\u012c\u024f",
			"primitives":[
				{
					"attributes":{
						"POSITION":0,
						"NORMAL":1
					},
					"indices":2,
					"material":0
				},
				{
					"attributes":{
						"POSITION":3,
						"NORMAL":4
					},
					"indices":5,
					"material":1
				}
			]
		}
	],
	"accessors":[
		{
			"bufferView":0,
			"componentType":5126,
			"count":1152,
			"max":[
				0.06400000303983688,
				0.06251050531864166,
				-0.01664998009800911
			],
			"min":[
				-0.06251035630702972,
				-0.06251019984483719,
				-0.15564997494220734
			],
			"type":"VEC3"
		},
		{
			"bufferView":1,
			"componentType":5126,
			"count":1152,
			"type":"VEC3"
		},
		{
			"bufferView":2,
			"componentType":5123,
			"count":5391,
			"type":"SCALAR"
		},
		{
			"bufferView":3,
			"componentType":5126,
			"count":3766,
			"max":[
				0.06400000303983688,
				0.06096689775586128,
				0
			],
			"min":[
				-0.06160938739776611,
				-0.060953546315431595,
				-0.15764980018138885
			],
			"type":"VEC3"
		},
		{
			"bufferView":4,
			"componentType":5126,
			"count":3766,
			"type":"VEC3"
		},
		{
			"bufferView":5,
			"componentType":5123,
			"count":14064,
			"type":"SCALAR"
		}
	],
	"bufferViews":[
		{
			"buffer":0,
			"byteLength":13824,
			"byteOffset":0,
			"target":34962
		},
		{
			"buffer":0,
			"byteLength":13824,
			"byteOffset":13824,
			"target":34962
		},
		{
			"buffer":0,
			"byteLength":10782,
			"byteOffset":27648,
			"target":34963
		},
		{
			"buffer":0,
			"byteLength":45192,
			"byteOffset":38432,
			"target":34962
		},
		{
			"buffer":0,
			"byteLength":45192,
			"byteOffset":83624,
			"target":34962
		},
		{
			"buffer":0,
			"byteLength":28128,
			"byteOffset":128816,
			"target":34963
		}
	],
	"buffers":[
		{
			"byteLength":156944,
			"uri":"JAKA_Zu_5_J1.bin"
		}
	]
}
