{
	"asset":{
		"generator":"Khronos glTF Blender I/O v4.1.63",
		"version":"2.0"
	},
	"scene":0,
	"scenes":[
		{
			"name":"Scene",
			"nodes":[
				4
			]
		}
	],
	"nodes":[
		{
			"mesh":0,
			"name":"Zu 5 03_\u012c\u024f",
			"rotation":[
				-1,
				0,
				0,
				9.704692057730974e-17
			],
			"translation":[
				0.7724292874336243,
				0.2245836853981018,
				-0.07505008578300476
			]
		},
		{
			"mesh":1,
			"name":"Zu 5 03_\u012c\u024f001",
			"rotation":[
				-1,
				0,
				0,
				9.704692057730974e-17
			],
			"translation":[
				0.7724292874336243,
				0.2245836853981018,
				-0.07505008578300476
			]
		},
		{
			"mesh":2,
			"name":"Zu 5 03_\u012c\u024f002",
			"rotation":[
				-1,
				0,
				0,
				9.704692057730974e-17
			],
			"translation":[
				0.7724292874336243,
				0.2245836853981018,
				-0.07505008578300476
			]
		},
		{
			"children":[
				0,
				1,
				2
			],
			"name":"Zu 5 03_\u012c\u024f003"
		},
		{
			"children":[
				3
			],
			"name":"Zu 5 210907",
			"translation":[
				-0.42999985814094543,
				-0.11999999731779099,
				0
			]
		}
	],
	"materials":[
		{
			"doubleSided":true,
			"name":"mat_0",
			"pbrMetallicRoughness":{
				"baseColorFactor":[
					1,
					0,
					0,
					1
				],
				"metallicFactor":0
			}
		},
		{
			"doubleSided":true,
			"name":"mat_1",
			"pbrMetallicRoughness":{
				"baseColorFactor":[
					0.68668532371521,
					0.68668532371521,
					0.68668532371521,
					1
				],
				"metallicFactor":0
			}
		}
	],
	"meshes":[
		{
			"name":"Zu 5 03_\u012c\u024f",
			"primitives":[
				{
					"attributes":{
						"POSITION":0,
						"NORMAL":1
					},
					"indices":2,
					"material":0
				},
				{
					"attributes":{
						"POSITION":3,
						"NORMAL":4
					},
					"indices":5,
					"material":1
				}
			]
		},
		{
			"name":"Zu 5 03_\u012c\u024f001",
			"primitives":[
				{
					"attributes":{
						"POSITION":6,
						"NORMAL":7
					},
					"indices":8,
					"material":1
				},
				{
					"attributes":{
						"POSITION":9,
						"NORMAL":10
					},
					"indices":11,
					"material":0
				}
			]
		},
		{
			"name":"Zu 5 03_\u012c\u024f002",
			"primitives":[
				{
					"attributes":{
						"POSITION":12,
						"NORMAL":13
					},
					"indices":14,
					"material":1
				},
				{
					"attributes":{
						"POSITION":15,
						"NORMAL":16
					},
					"indices":17,
					"material":0
				}
			]
		}
	],
	"accessors":[
		{
			"bufferView":0,
			"componentType":5126,
			"count":1110,
			"max":[
				0.06821214407682419,
				0.1466182917356491,
				-0.019550085067749023
			],
			"min":[
				-0.019427061080932617,
				0.062267690896987915,
				-0.12066125869750977
			],
			"type":"VEC3"
		},
		{
			"bufferView":1,
			"componentType":5126,
			"count":1110,
			"type":"VEC3"
		},
		{
			"bufferView":2,
			"componentType":5123,
			"count":5496,
			"type":"SCALAR"
		},
		{
			"bufferView":3,
			"componentType":5126,
			"count":442,
			"max":[
				0.06752526015043259,
				0.1453927904367447,
				-0.006550085265189409
			],
			"min":[
				-0.019427061080932617,
				0.06348087638616562,
				-0.12066125869750977
			],
			"type":"VEC3"
		},
		{
			"bufferView":4,
			"componentType":5126,
			"count":442,
			"type":"VEC3"
		},
		{
			"bufferView":5,
			"componentType":5123,
			"count":1272,
			"type":"SCALAR"
		},
		{
			"bufferView":6,
			"componentType":5126,
			"count":1612,
			"max":[
				0.06752526015043259,
				0.14537768065929413,
				-0.10425962507724762
			],
			"min":[
				-0.014482924714684486,
				0.06349572539329529,
				-0.1315251588821411
			],
			"type":"VEC3"
		},
		{
			"bufferView":7,
			"componentType":5126,
			"count":1612,
			"type":"VEC3"
		},
		{
			"bufferView":8,
			"componentType":5123,
			"count":6894,
			"type":"SCALAR"
		},
		{
			"bufferView":9,
			"componentType":5126,
			"count":73,
			"max":[
				0.045553404837846756,
				0.10927435010671616,
				-0.1290500909090042
			],
			"min":[
				0.00566339073702693,
				0.09929317235946655,
				-0.1290500909090042
			],
			"type":"VEC3"
		},
		{
			"bufferView":10,
			"componentType":5126,
			"count":73,
			"type":"VEC3"
		},
		{
			"bufferView":11,
			"componentType":5123,
			"count":186,
			"type":"SCALAR"
		},
		{
			"bufferView":12,
			"componentType":5126,
			"count":4612,
			"max":[
				-0.01942705735564232,
				0.16344553232192993,
				-0.011050085537135601
			],
			"min":[
				-0.40132078528404236,
				0.04544561356306076,
				-0.11505008488893509
			],
			"type":"VEC3"
		},
		{
			"bufferView":13,
			"componentType":5126,
			"count":4612,
			"type":"VEC3"
		},
		{
			"bufferView":14,
			"componentType":5123,
			"count":15438,
			"type":"SCALAR"
		},
		{
			"bufferView":15,
			"componentType":5126,
			"count":584,
			"max":[
				-0.09724152088165283,
				0.1071462333202362,
				-0.10576008260250092
			],
			"min":[
				-0.20417994260787964,
				0.10186143219470978,
				-0.10576008260250092
			],
			"type":"VEC3"
		},
		{
			"bufferView":16,
			"componentType":5126,
			"count":584,
			"type":"VEC3"
		},
		{
			"bufferView":17,
			"componentType":5123,
			"count":1452,
			"type":"SCALAR"
		}
	],
	"bufferViews":[
		{
			"buffer":0,
			"byteLength":13320,
			"byteOffset":0,
			"target":34962
		},
		{
			"buffer":0,
			"byteLength":13320,
			"byteOffset":13320,
			"target":34962
		},
		{
			"buffer":0,
			"byteLength":10992,
			"byteOffset":26640,
			"target":34963
		},
		{
			"buffer":0,
			"byteLength":5304,
			"byteOffset":37632,
			"target":34962
		},
		{
			"buffer":0,
			"byteLength":5304,
			"byteOffset":42936,
			"target":34962
		},
		{
			"buffer":0,
			"byteLength":2544,
			"byteOffset":48240,
			"target":34963
		},
		{
			"buffer":0,
			"byteLength":19344,
			"byteOffset":50784,
			"target":34962
		},
		{
			"buffer":0,
			"byteLength":19344,
			"byteOffset":70128,
			"target":34962
		},
		{
			"buffer":0,
			"byteLength":13788,
			"byteOffset":89472,
			"target":34963
		},
		{
			"buffer":0,
			"byteLength":876,
			"byteOffset":103260,
			"target":34962
		},
		{
			"buffer":0,
			"byteLength":876,
			"byteOffset":104136,
			"target":34962
		},
		{
			"buffer":0,
			"byteLength":372,
			"byteOffset":105012,
			"target":34963
		},
		{
			"buffer":0,
			"byteLength":55344,
			"byteOffset":105384,
			"target":34962
		},
		{
			"buffer":0,
			"byteLength":55344,
			"byteOffset":160728,
			"target":34962
		},
		{
			"buffer":0,
			"byteLength":30876,
			"byteOffset":216072,
			"target":34963
		},
		{
			"buffer":0,
			"byteLength":7008,
			"byteOffset":246948,
			"target":34962
		},
		{
			"buffer":0,
			"byteLength":7008,
			"byteOffset":253956,
			"target":34962
		},
		{
			"buffer":0,
			"byteLength":2904,
			"byteOffset":260964,
			"target":34963
		}
	],
	"buffers":[
		{
			"byteLength":263868,
			"uri":"JAKA_Zu_5_J3.bin"
		}
	]
}
