{
	"asset":{
		"generator":"Khronos glTF Blender I/O v4.1.63",
		"version":"2.0"
	},
	"scene":0,
	"scenes":[
		{
			"name":"Scene",
			"nodes":[
				3
			]
		}
	],
	"nodes":[
		{
			"mesh":0,
			"name":"Zu 5 04_\u012c\u024f",
			"rotation":[
				0.5,
				0.5,
				-0.5,
				0.5
			],
			"translation":[
				0.7985022664070129,
				0.05213812738656998,
				-0.11400000005960464
			]
		},
		{
			"mesh":1,
			"name":"Zu 5 04_\u012c\u024f001",
			"rotation":[
				0.5,
				0.5,
				-0.5,
				0.5
			],
			"translation":[
				0.7985022664070129,
				0.05213812738656998,
				-0.11400000005960464
			]
		},
		{
			"children":[
				0,
				1
			],
			"name":"Zu 5 04_\u012c\u024f002"
		},
		{
			"children":[
				2
			],
			"name":"Zu 5 210907",
			"translation":[
				-0.7985000014305115,
				-0.11999998241662979,
				0
			]
		}
	],
	"materials":[
		{
			"doubleSided":true,
			"name":"mat_0",
			"pbrMetallicRoughness":{
				"baseColorFactor":[
					1,
					0,
					0,
					1
				],
				"metallicFactor":0
			}
		},
		{
			"doubleSided":true,
			"name":"mat_1",
			"pbrMetallicRoughness":{
				"baseColorFactor":[
					0.68668532371521,
					0.68668532371521,
					0.68668532371521,
					1
				],
				"metallicFactor":0
			}
		}
	],
	"meshes":[
		{
			"name":"Zu 5 04_\u012c\u024f",
			"primitives":[
				{
					"attributes":{
						"POSITION":0,
						"NORMAL":1
					},
					"indices":2,
					"material":0
				},
				{
					"attributes":{
						"POSITION":3,
						"NORMAL":4
					},
					"indices":5,
					"material":1
				}
			]
		},
		{
			"name":"Zu 5 04_\u012c\u024f001",
			"primitives":[
				{
					"attributes":{
						"POSITION":6,
						"NORMAL":7
					},
					"indices":8,
					"material":1
				},
				{
					"attributes":{
						"POSITION":9,
						"NORMAL":10
					},
					"indices":11,
					"material":0
				}
			]
		}
	],
	"accessors":[
		{
			"bufferView":0,
			"componentType":5126,
			"count":1112,
			"max":[
				0.0421392098069191,
				0.04217274487018585,
				-0.013000000268220901
			],
			"min":[
				-0.045499999076128006,
				-0.04217786341905594,
				-0.11411117017269135
			],
			"type":"VEC3"
		},
		{
			"bufferView":1,
			"componentType":5126,
			"count":1112,
			"type":"VEC3"
		},
		{
			"bufferView":2,
			"componentType":5123,
			"count":5508,
			"type":"SCALAR"
		},
		{
			"bufferView":3,
			"componentType":5126,
			"count":442,
			"max":[
				0.0414523184299469,
				0.040947239845991135,
				7.105427695090692e-18
			],
			"min":[
				-0.045499999076128006,
				-0.040964677929878235,
				-0.11411117017269135
			],
			"type":"VEC3"
		},
		{
			"bufferView":4,
			"componentType":5126,
			"count":442,
			"type":"VEC3"
		},
		{
			"bufferView":5,
			"componentType":5123,
			"count":1272,
			"type":"SCALAR"
		},
		{
			"bufferView":6,
			"componentType":5126,
			"count":1595,
			"max":[
				0.0414523184299469,
				0.040932122617959976,
				-0.0977095365524292
			],
			"min":[
				-0.040555864572525024,
				-0.040949828922748566,
				-0.12497507035732269
			],
			"type":"VEC3"
		},
		{
			"bufferView":7,
			"componentType":5126,
			"count":1595,
			"type":"VEC3"
		},
		{
			"bufferView":8,
			"componentType":5123,
			"count":6894,
			"type":"SCALAR"
		},
		{
			"bufferView":9,
			"componentType":5126,
			"count":76,
			"max":[
				0.019480468705296516,
				0.004828797187656164,
				-0.12250000238418579
			],
			"min":[
				-0.02040954865515232,
				-0.005152382422238588,
				-0.12250000238418579
			],
			"type":"VEC3"
		},
		{
			"bufferView":10,
			"componentType":5126,
			"count":76,
			"type":"VEC3"
		},
		{
			"bufferView":11,
			"componentType":5123,
			"count":186,
			"type":"SCALAR"
		}
	],
	"bufferViews":[
		{
			"buffer":0,
			"byteLength":13344,
			"byteOffset":0,
			"target":34962
		},
		{
			"buffer":0,
			"byteLength":13344,
			"byteOffset":13344,
			"target":34962
		},
		{
			"buffer":0,
			"byteLength":11016,
			"byteOffset":26688,
			"target":34963
		},
		{
			"buffer":0,
			"byteLength":5304,
			"byteOffset":37704,
			"target":34962
		},
		{
			"buffer":0,
			"byteLength":5304,
			"byteOffset":43008,
			"target":34962
		},
		{
			"buffer":0,
			"byteLength":2544,
			"byteOffset":48312,
			"target":34963
		},
		{
			"buffer":0,
			"byteLength":19140,
			"byteOffset":50856,
			"target":34962
		},
		{
			"buffer":0,
			"byteLength":19140,
			"byteOffset":69996,
			"target":34962
		},
		{
			"buffer":0,
			"byteLength":13788,
			"byteOffset":89136,
			"target":34963
		},
		{
			"buffer":0,
			"byteLength":912,
			"byteOffset":102924,
			"target":34962
		},
		{
			"buffer":0,
			"byteLength":912,
			"byteOffset":103836,
			"target":34962
		},
		{
			"buffer":0,
			"byteLength":372,
			"byteOffset":104748,
			"target":34963
		}
	],
	"buffers":[
		{
			"byteLength":105120,
			"uri":"JAKA_Zu_5_J4.bin"
		}
	]
}
