{
	"asset":{
		"generator":"Khronos glTF Blender I/O v4.1.63",
		"version":"2.0"
	},
	"scene":0,
	"scenes":[
		{
			"name":"Scene",
			"nodes":[
				0,
				1
			]
		}
	],
	"nodes":[
		{
			"mesh":0,
			"name":"J2-PART2.001",
			"scale":[
				0.0010000000474974513,
				0.0010000000474974513,
				0.0010000000474974513
			]
		},
		{
			"mesh":1,
			"name":"J2-PART1.001",
			"scale":[
				0.0010000000474974513,
				0.0010000000474974513,
				0.0010000000474974513
			]
		}
	],
	"materials":[
		{
			"doubleSided":true,
			"name":"Mat_3.005",
			"pbrMetallicRoughness":{
				"baseColorFactor":[
					0.12287284433841705,
					0.342957466840744,
					0.6042469143867493,
					1
				],
				"metallicFactor":0,
				"roughnessFactor":0.30000001192092896
			}
		},
		{
			"doubleSided":true,
			"name":"Mat_1.007",
			"pbrMetallicRoughness":{
				"baseColorFactor":[
					0.6038273572921753,
					0.6038273572921753,
					0.6038273572921753,
					1
				],
				"metallicFactor":0,
				"roughnessFactor":0.30000001192092896
			}
		}
	],
	"meshes":[
		{
			"name":"Mesh_1.007",
			"primitives":[
				{
					"attributes":{
						"POSITION":0,
						"NORMAL":1
					},
					"indices":2,
					"material":0
				}
			]
		},
		{
			"name":"Mesh_0.007",
			"primitives":[
				{
					"attributes":{
						"POSITION":3,
						"NORMAL":4
					},
					"indices":5,
					"material":1
				}
			]
		}
	],
	"accessors":[
		{
			"bufferView":0,
			"componentType":5126,
			"count":13629,
			"max":[
				45.000675201416016,
				92.49346923828125,
				321.25665283203125
			],
			"min":[
				-44.99332809448242,
				55.500003814697266,
				-45.42543029785156
			],
			"type":"VEC3"
		},
		{
			"bufferView":1,
			"componentType":5126,
			"count":13629,
			"type":"VEC3"
		},
		{
			"bufferView":2,
			"componentType":5123,
			"count":66696,
			"type":"SCALAR"
		},
		{
			"bufferView":3,
			"componentType":5126,
			"count":5867,
			"max":[
				44.99873733520508,
				60.00004196166992,
				321.2579345703125
			],
			"min":[
				-44.99874496459961,
				-36.999996185302734,
				-45.42503356933594
			],
			"type":"VEC3"
		},
		{
			"bufferView":4,
			"componentType":5126,
			"count":5867,
			"type":"VEC3"
		},
		{
			"bufferView":5,
			"componentType":5123,
			"count":22638,
			"type":"SCALAR"
		}
	],
	"bufferViews":[
		{
			"buffer":0,
			"byteLength":163548,
			"byteOffset":0,
			"target":34962
		},
		{
			"buffer":0,
			"byteLength":163548,
			"byteOffset":163548,
			"target":34962
		},
		{
			"buffer":0,
			"byteLength":133392,
			"byteOffset":327096,
			"target":34963
		},
		{
			"buffer":0,
			"byteLength":70404,
			"byteOffset":460488,
			"target":34962
		},
		{
			"buffer":0,
			"byteLength":70404,
			"byteOffset":530892,
			"target":34962
		},
		{
			"buffer":0,
			"byteLength":45276,
			"byteOffset":601296,
			"target":34963
		}
	],
	"buffers":[
		{
			"byteLength":646572,
			"uri":"NOVA2_J2.bin"
		}
	]
}
