{
	"asset":{
		"generator":"Khronos glTF Blender I/O v4.1.63",
		"version":"2.0"
	},
	"scene":0,
	"scenes":[
		{
			"name":"Scene",
			"nodes":[
				2
			]
		}
	],
	"nodes":[
		{
			"mesh":0,
			"name":"J2-PART1"
		},
		{
			"mesh":1,
			"name":"J2-PART2"
		},
		{
			"children":[
				0,
				1
			],
			"name":"J2_ASM",
			"translation":[
				0,
				-0.21799999475479126,
				0
			]
		}
	],
	"materials":[
		{
			"doubleSided":true,
			"name":"mat_0",
			"pbrMetallicRoughness":{
				"baseColorFactor":[
					0.6038273572921753,
					0.6038273572921753,
					0.6038273572921753,
					1
				],
				"metallicFactor":0
			}
		},
		{
			"doubleSided":true,
			"name":"Material.001",
			"pbrMetallicRoughness":{
				"baseColorFactor":[
					0.0339999683201313,
					0.30299901962280273,
					0.6039999723434448,
					1
				],
				"metallicFactor":0,
				"roughnessFactor":0.5
			}
		}
	],
	"meshes":[
		{
			"name":"J2-PART1",
			"primitives":[
				{
					"attributes":{
						"POSITION":0,
						"NORMAL":1
					},
					"indices":2,
					"material":0
				}
			]
		},
		{
			"name":"J2-PART2",
			"primitives":[
				{
					"attributes":{
						"POSITION":3,
						"NORMAL":4
					},
					"indices":5,
					"material":1
				}
			]
		}
	],
	"accessors":[
		{
			"bufferView":0,
			"componentType":5126,
			"count":3843,
			"max":[
				0.044998735189437866,
				0.5392579436302185,
				-0.02250000089406967
			],
			"min":[
				-0.04499874264001846,
				0.1725749522447586,
				-0.11950003355741501
			],
			"type":"VEC3"
		},
		{
			"bufferView":1,
			"componentType":5126,
			"count":3843,
			"type":"VEC3"
		},
		{
			"bufferView":2,
			"componentType":5123,
			"count":11958,
			"type":"SCALAR"
		},
		{
			"bufferView":3,
			"componentType":5126,
			"count":7874,
			"max":[
				0.044980645179748535,
				0.5392574667930603,
				-0.11500000208616257
			],
			"min":[
				-0.045001231133937836,
				0.17257453501224518,
				-0.15199634432792664
			],
			"type":"VEC3"
		},
		{
			"bufferView":4,
			"componentType":5126,
			"count":7874,
			"type":"VEC3"
		},
		{
			"bufferView":5,
			"componentType":5123,
			"count":34410,
			"type":"SCALAR"
		}
	],
	"bufferViews":[
		{
			"buffer":0,
			"byteLength":46116,
			"byteOffset":0,
			"target":34962
		},
		{
			"buffer":0,
			"byteLength":46116,
			"byteOffset":46116,
			"target":34962
		},
		{
			"buffer":0,
			"byteLength":23916,
			"byteOffset":92232,
			"target":34963
		},
		{
			"buffer":0,
			"byteLength":94488,
			"byteOffset":116148,
			"target":34962
		},
		{
			"buffer":0,
			"byteLength":94488,
			"byteOffset":210636,
			"target":34962
		},
		{
			"buffer":0,
			"byteLength":68820,
			"byteOffset":305124,
			"target":34963
		}
	],
	"buffers":[
		{
			"byteLength":373944,
			"uri":"NOVA2_J2_ASM.bin"
		}
	]
}
