{
	"asset":{
		"generator":"Khronos glTF Blender I/O v4.1.63",
		"version":"2.0"
	},
	"scene":0,
	"scenes":[
		{
			"name":"Scene",
			"nodes":[
				6
			]
		}
	],
	"nodes":[
		{
			"mesh":0,
			"name":"J5-PART1"
		},
		{
			"mesh":1,
			"name":"J5-PART2"
		},
		{
			"mesh":2,
			"name":"J5-PART3"
		},
		{
			"mesh":3,
			"name":"J5-PART4"
		},
		{
			"mesh":4,
			"name":"J5-PART5",
			"rotation":[
				0,
				0.7071068286895752,
				-0.7071068286895752,
				0
			],
			"translation":[
				0,
				0,
				-0.04500000178813934
			]
		},
		{
			"children":[
				0,
				1,
				2,
				3,
				4
			],
			"name":"J5_ASM",
			"translation":[
				0,
				0.8429999947547913,
				-0.11550000309944153
			]
		},
		{
			"children":[
				5
			],
			"name":"NOVA2_ASM_ASM",
			"translation":[
				0,
				-0.7870000004768372,
				0.11550000309944153
			]
		}
	],
	"materials":[
		{
			"doubleSided":true,
			"name":"mat_0",
			"pbrMetallicRoughness":{
				"baseColorFactor":[
					0.6038273572921753,
					0.6038273572921753,
					0.6038273572921753,
					1
				],
				"metallicFactor":0
			}
		},
		{
			"doubleSided":true,
			"name":"Material",
			"pbrMetallicRoughness":{
				"baseColorFactor":[
					0.0339999683201313,
					0.30299901962280273,
					0.6039999723434448,
					1
				],
				"metallicFactor":0,
				"roughnessFactor":0.5
			}
		}
	],
	"meshes":[
		{
			"name":"J5-PART1",
			"primitives":[
				{
					"attributes":{
						"POSITION":0,
						"NORMAL":1
					},
					"indices":2,
					"material":0
				}
			]
		},
		{
			"name":"J5-PART2",
			"primitives":[
				{
					"attributes":{
						"POSITION":3,
						"NORMAL":4
					},
					"indices":5,
					"material":1
				}
			]
		},
		{
			"name":"J5-PART3",
			"primitives":[
				{
					"attributes":{
						"POSITION":6,
						"NORMAL":7
					},
					"indices":8,
					"material":0
				}
			]
		},
		{
			"name":"J5-PART4",
			"primitives":[
				{
					"attributes":{
						"POSITION":9,
						"NORMAL":10
					},
					"indices":11,
					"material":0
				}
			]
		},
		{
			"name":"J5-PART5",
			"primitives":[
				{
					"attributes":{
						"POSITION":12,
						"NORMAL":13
					},
					"indices":14,
					"material":1
				}
			]
		}
	],
	"accessors":[
		{
			"bufferView":0,
			"componentType":5126,
			"count":3429,
			"max":[
				0.03576807305216789,
				0.03526923060417175,
				0.046000007539987564
			],
			"min":[
				-0.03576807305216789,
				-0.05600510537624359,
				-0.06449999660253525
			],
			"type":"VEC3"
		},
		{
			"bufferView":1,
			"componentType":5126,
			"count":3429,
			"type":"VEC3"
		},
		{
			"bufferView":2,
			"componentType":5123,
			"count":12843,
			"type":"SCALAR"
		},
		{
			"bufferView":3,
			"componentType":5126,
			"count":5900,
			"max":[
				0.03539091721177101,
				0.035372551530599594,
				0.06178344786167145
			],
			"min":[
				-0.035354774445295334,
				-0.03454283997416496,
				-0.022000091150403023
			],
			"type":"VEC3"
		},
		{
			"bufferView":4,
			"componentType":5126,
			"count":5900,
			"type":"VEC3"
		},
		{
			"bufferView":5,
			"componentType":5123,
			"count":23178,
			"type":"SCALAR"
		},
		{
			"bufferView":6,
			"componentType":5126,
			"count":10253,
			"max":[
				0.02824999950826168,
				0.02824999950826168,
				0.059484466910362244
			],
			"min":[
				-0.02824999950826168,
				-0.02824999950826168,
				0.052999988198280334
			],
			"type":"VEC3"
		},
		{
			"bufferView":7,
			"componentType":5126,
			"count":10253,
			"type":"VEC3"
		},
		{
			"bufferView":8,
			"componentType":5123,
			"count":38106,
			"type":"SCALAR"
		},
		{
			"bufferView":9,
			"componentType":5126,
			"count":7654,
			"max":[
				0.017500000074505806,
				0.017500000074505806,
				0.06200003623962402
			],
			"min":[
				-0.017500000074505806,
				-0.017500000074505806,
				0.05698826536536217
			],
			"type":"VEC3"
		},
		{
			"bufferView":10,
			"componentType":5126,
			"count":7654,
			"type":"VEC3"
		},
		{
			"bufferView":11,
			"componentType":5123,
			"count":31950,
			"type":"SCALAR"
		},
		{
			"bufferView":12,
			"componentType":5126,
			"count":2350,
			"max":[
				0.03449999913573265,
				0.006500000134110451,
				0.03444940224289894
			],
			"min":[
				-0.03449999913573265,
				0,
				-0.03444940224289894
			],
			"type":"VEC3"
		},
		{
			"bufferView":13,
			"componentType":5126,
			"count":2350,
			"type":"VEC3"
		},
		{
			"bufferView":14,
			"componentType":5123,
			"count":10788,
			"type":"SCALAR"
		}
	],
	"bufferViews":[
		{
			"buffer":0,
			"byteLength":41148,
			"byteOffset":0,
			"target":34962
		},
		{
			"buffer":0,
			"byteLength":41148,
			"byteOffset":41148,
			"target":34962
		},
		{
			"buffer":0,
			"byteLength":25686,
			"byteOffset":82296,
			"target":34963
		},
		{
			"buffer":0,
			"byteLength":70800,
			"byteOffset":107984,
			"target":34962
		},
		{
			"buffer":0,
			"byteLength":70800,
			"byteOffset":178784,
			"target":34962
		},
		{
			"buffer":0,
			"byteLength":46356,
			"byteOffset":249584,
			"target":34963
		},
		{
			"buffer":0,
			"byteLength":123036,
			"byteOffset":295940,
			"target":34962
		},
		{
			"buffer":0,
			"byteLength":123036,
			"byteOffset":418976,
			"target":34962
		},
		{
			"buffer":0,
			"byteLength":76212,
			"byteOffset":542012,
			"target":34963
		},
		{
			"buffer":0,
			"byteLength":91848,
			"byteOffset":618224,
			"target":34962
		},
		{
			"buffer":0,
			"byteLength":91848,
			"byteOffset":710072,
			"target":34962
		},
		{
			"buffer":0,
			"byteLength":63900,
			"byteOffset":801920,
			"target":34963
		},
		{
			"buffer":0,
			"byteLength":28200,
			"byteOffset":865820,
			"target":34962
		},
		{
			"buffer":0,
			"byteLength":28200,
			"byteOffset":894020,
			"target":34962
		},
		{
			"buffer":0,
			"byteLength":21576,
			"byteOffset":922220,
			"target":34963
		}
	],
	"buffers":[
		{
			"byteLength":943796,
			"uri":"NOVA2_J5_ASM.bin"
		}
	]
}
