{
	"asset":{
		"generator":"Khronos glTF Blender I/O v4.1.63",
		"version":"2.0"
	},
	"scene":0,
	"scenes":[
		{
			"name":"Scene",
			"nodes":[
				6
			]
		}
	],
	"nodes":[
		{
			"mesh":0,
			"name":"GB_T70P3_M2P5X6_2_1_1_2_1_1_1_002",
			"rotation":[
				0.9932875037193298,
				0,
				0,
				0.1156717836856842
			],
			"translation":[
				-0.021700041368603706,
				0,
				-0.021500002592802048
			]
		},
		{
			"mesh":1,
			"name":"GB_T70P3_M2P5X6_2_1_1_2_1_1_1_1",
			"rotation":[
				-0.1156717836856842,
				0,
				0,
				0.9932875037193298
			],
			"translation":[
				-0.021700041368603706,
				0,
				0.02149999886751175
			]
		},
		{
			"mesh":2,
			"name":"J6-PART1"
		},
		{
			"mesh":3,
			"name":"J6-PART2",
			"rotation":[
				0,
				0,
				-1,
				0
			],
			"translation":[
				-0.013699999079108238,
				0,
				0
			]
		},
		{
			"mesh":4,
			"name":"J6-PART3",
			"rotation":[
				0.5,
				0.5,
				0.5,
				0.5
			],
			"translation":[
				-0.009999999776482582,
				-0.03460000082850456,
				0
			]
		},
		{
			"children":[
				0,
				1,
				2,
				3,
				4
			],
			"name":"J6_ASM",
			"rotation":[
				0,
				-0.7071068286895752,
				0,
				0.7071067094802856
			],
			"translation":[
				0,
				0.8429999947547913,
				-0.18150000274181366
			]
		},
		{
			"children":[
				5
			],
			"name":"NOVA2_ASM_ASM",
			"translation":[
				0,
				-0.8429999947547913,
				0.16750000417232513
			]
		}
	],
	"materials":[
		{
			"doubleSided":true,
			"name":"mat_0",
			"pbrMetallicRoughness":{
				"baseColorFactor":[
					0.972000002861023,
					0.9600000381469727,
					0.9150000214576721,
					1
				],
				"metallicFactor":0.800000011920929,
				"roughnessFactor":0.25
			}
		}
	],
	"meshes":[
		{
			"name":"GB_T70P3_M2P5X6_2_1_1_2_1_1_1_1.001",
			"primitives":[
				{
					"attributes":{
						"POSITION":0,
						"NORMAL":1
					},
					"indices":2,
					"material":0
				}
			]
		},
		{
			"name":"GB_T70P3_M2P5X6_2_1_1_2_1_1_1_1",
			"primitives":[
				{
					"attributes":{
						"POSITION":3,
						"NORMAL":4
					},
					"indices":2,
					"material":0
				}
			]
		},
		{
			"name":"J6-PART1",
			"primitives":[
				{
					"attributes":{
						"POSITION":5,
						"NORMAL":6
					},
					"indices":7,
					"material":0
				}
			]
		},
		{
			"name":"J6-PART2",
			"primitives":[
				{
					"attributes":{
						"POSITION":8,
						"NORMAL":9
					},
					"indices":10,
					"material":0
				}
			]
		},
		{
			"name":"J6-PART3",
			"primitives":[
				{
					"attributes":{
						"POSITION":11,
						"NORMAL":12
					},
					"indices":13,
					"material":0
				}
			]
		}
	],
	"accessors":[
		{
			"bufferView":0,
			"componentType":5126,
			"count":1178,
			"max":[
				0.006000000052154064,
				0.0024999999441206455,
				0.0024950667284429073
			],
			"min":[
				-2.5442616763404757e-12,
				-0.0024999999441206455,
				-0.0024950667284429073
			],
			"type":"VEC3"
		},
		{
			"bufferView":1,
			"componentType":5126,
			"count":1178,
			"type":"VEC3"
		},
		{
			"bufferView":2,
			"componentType":5123,
			"count":4308,
			"type":"SCALAR"
		},
		{
			"bufferView":3,
			"componentType":5126,
			"count":1178,
			"max":[
				0.006000000052154064,
				0.0024999999441206455,
				0.0024950667284429073
			],
			"min":[
				-2.5442616763404757e-12,
				-0.0024999999441206455,
				-0.0024950667284429073
			],
			"type":"VEC3"
		},
		{
			"bufferView":4,
			"componentType":5126,
			"count":1178,
			"type":"VEC3"
		},
		{
			"bufferView":5,
			"componentType":5126,
			"count":7117,
			"max":[
				0.014000000432133675,
				0.03500000014901161,
				0.03500000014901161
			],
			"min":[
				-0.02199999988079071,
				-0.03500000014901161,
				-0.03500000014901161
			],
			"type":"VEC3"
		},
		{
			"bufferView":6,
			"componentType":5126,
			"count":7117,
			"type":"VEC3"
		},
		{
			"bufferView":7,
			"componentType":5123,
			"count":24798,
			"type":"SCALAR"
		},
		{
			"bufferView":8,
			"componentType":5126,
			"count":1804,
			"max":[
				0.00800000037997961,
				0.01899999938905239,
				0.024900000542402267
			],
			"min":[
				1.0604850382041472e-15,
				-0.01899999938905239,
				-0.024900000542402267
			],
			"type":"VEC3"
		},
		{
			"bufferView":9,
			"componentType":5126,
			"count":1804,
			"type":"VEC3"
		},
		{
			"bufferView":10,
			"componentType":5123,
			"count":5184,
			"type":"SCALAR"
		},
		{
			"bufferView":11,
			"componentType":5126,
			"count":20765,
			"max":[
				0.02068277634680271,
				0.005771594122052193,
				0.005072569940239191
			],
			"min":[
				-0.006899999920278788,
				-0.005771594122052193,
				-0.005072569940239191
			],
			"type":"VEC3"
		},
		{
			"bufferView":12,
			"componentType":5126,
			"count":20765,
			"type":"VEC3"
		},
		{
			"bufferView":13,
			"componentType":5123,
			"count":83094,
			"type":"SCALAR"
		}
	],
	"bufferViews":[
		{
			"buffer":0,
			"byteLength":14136,
			"byteOffset":0,
			"target":34962
		},
		{
			"buffer":0,
			"byteLength":14136,
			"byteOffset":14136,
			"target":34962
		},
		{
			"buffer":0,
			"byteLength":8616,
			"byteOffset":28272,
			"target":34963
		},
		{
			"buffer":0,
			"byteLength":14136,
			"byteOffset":36888,
			"target":34962
		},
		{
			"buffer":0,
			"byteLength":14136,
			"byteOffset":51024,
			"target":34962
		},
		{
			"buffer":0,
			"byteLength":85404,
			"byteOffset":65160,
			"target":34962
		},
		{
			"buffer":0,
			"byteLength":85404,
			"byteOffset":150564,
			"target":34962
		},
		{
			"buffer":0,
			"byteLength":49596,
			"byteOffset":235968,
			"target":34963
		},
		{
			"buffer":0,
			"byteLength":21648,
			"byteOffset":285564,
			"target":34962
		},
		{
			"buffer":0,
			"byteLength":21648,
			"byteOffset":307212,
			"target":34962
		},
		{
			"buffer":0,
			"byteLength":10368,
			"byteOffset":328860,
			"target":34963
		},
		{
			"buffer":0,
			"byteLength":249180,
			"byteOffset":339228,
			"target":34962
		},
		{
			"buffer":0,
			"byteLength":249180,
			"byteOffset":588408,
			"target":34962
		},
		{
			"buffer":0,
			"byteLength":166188,
			"byteOffset":837588,
			"target":34963
		}
	],
	"buffers":[
		{
			"byteLength":1003776,
			"uri":"NOVA2_J6_ASM.bin"
		}
	]
}
