{
	"asset":{
		"generator":"Khronos glTF Blender I/O v4.1.63",
		"version":"2.0"
	},
	"scene":0,
	"scenes":[
		{
			"name":"Scene",
			"nodes":[
				2
			]
		}
	],
	"nodes":[
		{
			"mesh":0,
			"name":"J1-PART1",
			"translation":[
				0,
				0,
				129.8929443359375
			]
		},
		{
			"mesh":1,
			"name":"J1-PART2",
			"translation":[
				0,
				0,
				129.8929443359375
			]
		},
		{
			"children":[
				0,
				1
			],
			"name":"J1_ASM.001",
			"scale":[
				0.0010000000474974513,
				0.0010000000474974513,
				0.0010000000474974513
			]
		}
	],
	"materials":[
		{
			"doubleSided":true,
			"name":"Mat_1.001",
			"pbrMetallicRoughness":{
				"baseColorFactor":[
					0.6038273572921753,
					0.6038273572921753,
					0.6038273572921753,
					1
				],
				"metallicFactor":0,
				"roughnessFactor":0.30000001192092896
			}
		},
		{
			"doubleSided":true,
			"name":"Mat_3",
			"pbrMetallicRoughness":{
				"baseColorFactor":[
					0.12287284433841705,
					0.342957466840744,
					0.6042469143867493,
					1
				],
				"metallicFactor":0,
				"roughnessFactor":0.30000001192092896
			}
		}
	],
	"meshes":[
		{
			"name":"Mesh_0.001",
			"primitives":[
				{
					"attributes":{
						"POSITION":0,
						"NORMAL":1
					},
					"indices":2,
					"material":0
				}
			]
		},
		{
			"name":"Mesh_1.001",
			"primitives":[
				{
					"attributes":{
						"POSITION":3,
						"NORMAL":4
					},
					"indices":5,
					"material":1
				}
			]
		}
	],
	"accessors":[
		{
			"bufferView":0,
			"componentType":5126,
			"count":3048,
			"max":[
				44.49856185913086,
				75.5999984741211,
				132.60711669921875
			],
			"min":[
				-44.49855422973633,
				-46.49985885620117,
				9.1552734375e-05
			],
			"type":"VEC3"
		},
		{
			"bufferView":1,
			"componentType":5126,
			"count":3048,
			"type":"VEC3"
		},
		{
			"bufferView":2,
			"componentType":5123,
			"count":12516,
			"type":"SCALAR"
		},
		{
			"bufferView":3,
			"componentType":5126,
			"count":4507,
			"max":[
				44.14020538330078,
				-1.9995784759521484,
				132.6070556640625
			],
			"min":[
				-44.14006423950195,
				-46.64985275268555,
				42.10673522949219
			],
			"type":"VEC3"
		},
		{
			"bufferView":4,
			"componentType":5126,
			"count":4507,
			"type":"VEC3"
		},
		{
			"bufferView":5,
			"componentType":5123,
			"count":17988,
			"type":"SCALAR"
		}
	],
	"bufferViews":[
		{
			"buffer":0,
			"byteLength":36576,
			"byteOffset":0,
			"target":34962
		},
		{
			"buffer":0,
			"byteLength":36576,
			"byteOffset":36576,
			"target":34962
		},
		{
			"buffer":0,
			"byteLength":25032,
			"byteOffset":73152,
			"target":34963
		},
		{
			"buffer":0,
			"byteLength":54084,
			"byteOffset":98184,
			"target":34962
		},
		{
			"buffer":0,
			"byteLength":54084,
			"byteOffset":152268,
			"target":34962
		},
		{
			"buffer":0,
			"byteLength":35976,
			"byteOffset":206352,
			"target":34963
		}
	],
	"buffers":[
		{
			"byteLength":242328,
			"uri":"NOVA2_J1.bin"
		}
	]
}
