{
	"asset":{
		"generator":"Khronos glTF Blender I/O v4.1.63",
		"version":"2.0"
	},
	"scene":0,
	"scenes":[
		{
			"name":"Scene",
			"nodes":[
				3
			]
		}
	],
	"nodes":[
		{
			"mesh":0,
			"name":"J3-PART1",
			"translation":[
				0,
				0,
				-0.00023396126925945282
			]
		},
		{
			"mesh":1,
			"name":"J3-PART2"
		},
		{
			"children":[
				0,
				1
			],
			"name":"J3_ASM",
			"translation":[
				0,
				0,
				0.01899999938905239
			]
		},
		{
			"children":[
				2
			],
			"name":"NOVA2_ASM_ASM",
			"translation":[
				0,
				-0.49799999594688416,
				0
			]
		}
	],
	"materials":[
		{
			"doubleSided":true,
			"name":"Material.001",
			"pbrMetallicRoughness":{
				"baseColorFactor":[
					0.0339999683201313,
					0.30299901962280273,
					0.6039999723434448,
					1
				],
				"metallicFactor":0,
				"roughnessFactor":0.5
			}
		},
		{
			"doubleSided":true,
			"name":"mat_0",
			"pbrMetallicRoughness":{
				"baseColorFactor":[
					0.6038273572921753,
					0.6038273572921753,
					0.6038273572921753,
					1
				],
				"metallicFactor":0
			}
		}
	],
	"meshes":[
		{
			"name":"J3-PART1",
			"primitives":[
				{
					"attributes":{
						"POSITION":0,
						"NORMAL":1
					},
					"indices":2,
					"material":0
				}
			]
		},
		{
			"name":"J3-PART2",
			"primitives":[
				{
					"attributes":{
						"POSITION":3,
						"NORMAL":4
					},
					"indices":5,
					"material":1
				}
			]
		}
	],
	"accessors":[
		{
			"bufferView":0,
			"componentType":5126,
			"count":6545,
			"max":[
				0.040998540818691254,
				0.758867621421814,
				0.025916555896401405
			],
			"min":[
				-0.04099854454398155,
				0.4571289122104645,
				-0.007266039028763771
			],
			"type":"VEC3"
		},
		{
			"bufferView":1,
			"componentType":5126,
			"count":6545,
			"type":"VEC3"
		},
		{
			"bufferView":2,
			"componentType":5123,
			"count":25284,
			"type":"SCALAR"
		},
		{
			"bufferView":3,
			"componentType":5126,
			"count":3257,
			"max":[
				0.04099997878074646,
				0.7588640451431274,
				-0.003000000026077032
			],
			"min":[
				-0.040999963879585266,
				0.45713597536087036,
				-0.09149999916553497
			],
			"type":"VEC3"
		},
		{
			"bufferView":4,
			"componentType":5126,
			"count":3257,
			"type":"VEC3"
		},
		{
			"bufferView":5,
			"componentType":5123,
			"count":12198,
			"type":"SCALAR"
		}
	],
	"bufferViews":[
		{
			"buffer":0,
			"byteLength":78540,
			"byteOffset":0,
			"target":34962
		},
		{
			"buffer":0,
			"byteLength":78540,
			"byteOffset":78540,
			"target":34962
		},
		{
			"buffer":0,
			"byteLength":50568,
			"byteOffset":157080,
			"target":34963
		},
		{
			"buffer":0,
			"byteLength":39084,
			"byteOffset":207648,
			"target":34962
		},
		{
			"buffer":0,
			"byteLength":39084,
			"byteOffset":246732,
			"target":34962
		},
		{
			"buffer":0,
			"byteLength":24396,
			"byteOffset":285816,
			"target":34963
		}
	],
	"buffers":[
		{
			"byteLength":310212,
			"uri":"NOVA2_J3_ASM.bin"
		}
	]
}
