{
	"asset":{
		"generator":"Khronos glTF Blender I/O v4.1.63",
		"version":"2.0"
	},
	"scene":0,
	"scenes":[
		{
			"name":"Scene",
			"nodes":[
				4
			]
		}
	],
	"nodes":[
		{
			"mesh":0,
			"name":"BASE-PART1"
		},
		{
			"mesh":1,
			"name":"BASE-PART2"
		},
		{
			"mesh":2,
			"name":"BASE-PART3"
		},
		{
			"mesh":3,
			"name":"BASE-PART4"
		},
		{
			"children":[
				0,
				1,
				2,
				3
			],
			"name":"BASE_ASM.001",
			"scale":[
				0.0010000000474974513,
				0.0010000000474974513,
				0.0010000000474974513
			]
		}
	],
	"materials":[
		{
			"doubleSided":true,
			"name":"Mat_1",
			"pbrMetallicRoughness":{
				"baseColorFactor":[
					0.6038273572921753,
					0.6038273572921753,
					0.6038273572921753,
					1
				],
				"metallicFactor":0,
				"roughnessFactor":0.30000001192092896
			}
		},
		{
			"doubleSided":true,
			"name":"Mat_2",
			"pbrMetallicRoughness":{
				"baseColorFactor":[
					0.6038273572921753,
					0.6038273572921753,
					0.6038273572921753,
					1
				],
				"metallicFactor":0,
				"roughnessFactor":0.30000001192092896
			}
		},
		{
			"doubleSided":true,
			"name":"Mat_3",
			"pbrMetallicRoughness":{
				"baseColorFactor":[
					0.12287284433841705,
					0.342957466840744,
					0.6042469143867493,
					1
				],
				"metallicFactor":0,
				"roughnessFactor":0.30000001192092896
			}
		},
		{
			"doubleSided":true,
			"name":"Mat_4",
			"pbrMetallicRoughness":{
				"baseColorFactor":[
					0.6038273572921753,
					0.6038273572921753,
					0.6038273572921753,
					1
				],
				"metallicFactor":0,
				"roughnessFactor":0.30000001192092896
			}
		}
	],
	"meshes":[
		{
			"name":"Mesh_0",
			"primitives":[
				{
					"attributes":{
						"POSITION":0,
						"NORMAL":1
					},
					"indices":2,
					"material":0
				}
			]
		},
		{
			"name":"Mesh_1",
			"primitives":[
				{
					"attributes":{
						"POSITION":3,
						"NORMAL":4
					},
					"indices":5,
					"material":1
				}
			]
		},
		{
			"name":"Mesh_2",
			"primitives":[
				{
					"attributes":{
						"POSITION":6,
						"NORMAL":7
					},
					"indices":8,
					"material":2
				}
			]
		},
		{
			"name":"Mesh_3",
			"primitives":[
				{
					"attributes":{
						"POSITION":9,
						"NORMAL":10
					},
					"indices":11,
					"material":3
				}
			]
		}
	],
	"accessors":[
		{
			"bufferView":0,
			"componentType":5126,
			"count":7469,
			"max":[
				59.9999885559082,
				58,
				129.3930206298828
			],
			"min":[
				-60.0000114440918,
				-61.99967956542969,
				-5.409580230712891
			],
			"type":"VEC3"
		},
		{
			"bufferView":1,
			"componentType":5126,
			"count":7469,
			"type":"VEC3"
		},
		{
			"bufferView":2,
			"componentType":5123,
			"count":29064,
			"type":"SCALAR"
		},
		{
			"bufferView":3,
			"componentType":5126,
			"count":2649,
			"max":[
				17.8501033782959,
				-57.25,
				7.943015098571777
			],
			"min":[
				2.150102376937866,
				-62.25,
				-5.406984806060791
			],
			"type":"VEC3"
		},
		{
			"bufferView":4,
			"componentType":5126,
			"count":2649,
			"type":"VEC3"
		},
		{
			"bufferView":5,
			"componentType":5123,
			"count":11130,
			"type":"SCALAR"
		},
		{
			"bufferView":6,
			"componentType":5126,
			"count":464,
			"max":[
				43.93545913696289,
				42,
				129.3930206298828
			],
			"min":[
				-43.935482025146484,
				-46,
				122.89301300048828
			],
			"type":"VEC3"
		},
		{
			"bufferView":7,
			"componentType":5126,
			"count":464,
			"type":"VEC3"
		},
		{
			"bufferView":8,
			"componentType":5123,
			"count":1368,
			"type":"SCALAR"
		},
		{
			"bufferView":9,
			"componentType":5126,
			"count":714,
			"max":[
				14.550102233886719,
				-31.998077392578125,
				53.093013763427734
			],
			"min":[
				5.45010232925415,
				-86.54808044433594,
				-4.456984996795654
			],
			"type":"VEC3"
		},
		{
			"bufferView":10,
			"componentType":5126,
			"count":714,
			"type":"VEC3"
		},
		{
			"bufferView":11,
			"componentType":5123,
			"count":3060,
			"type":"SCALAR"
		}
	],
	"bufferViews":[
		{
			"buffer":0,
			"byteLength":89628,
			"byteOffset":0,
			"target":34962
		},
		{
			"buffer":0,
			"byteLength":89628,
			"byteOffset":89628,
			"target":34962
		},
		{
			"buffer":0,
			"byteLength":58128,
			"byteOffset":179256,
			"target":34963
		},
		{
			"buffer":0,
			"byteLength":31788,
			"byteOffset":237384,
			"target":34962
		},
		{
			"buffer":0,
			"byteLength":31788,
			"byteOffset":269172,
			"target":34962
		},
		{
			"buffer":0,
			"byteLength":22260,
			"byteOffset":300960,
			"target":34963
		},
		{
			"buffer":0,
			"byteLength":5568,
			"byteOffset":323220,
			"target":34962
		},
		{
			"buffer":0,
			"byteLength":5568,
			"byteOffset":328788,
			"target":34962
		},
		{
			"buffer":0,
			"byteLength":2736,
			"byteOffset":334356,
			"target":34963
		},
		{
			"buffer":0,
			"byteLength":8568,
			"byteOffset":337092,
			"target":34962
		},
		{
			"buffer":0,
			"byteLength":8568,
			"byteOffset":345660,
			"target":34962
		},
		{
			"buffer":0,
			"byteLength":6120,
			"byteOffset":354228,
			"target":34963
		}
	],
	"buffers":[
		{
			"byteLength":360348,
			"uri":"NOVA2_base.bin"
		}
	]
}
