{
	"asset":{
		"generator":"Khronos glTF Blender I/O v4.1.63",
		"version":"2.0"
	},
	"scene":0,
	"scenes":[
		{
			"name":"Scene",
			"nodes":[
				3
			]
		}
	],
	"nodes":[
		{
			"mesh":0,
			"name":"J4-PART1"
		},
		{
			"mesh":1,
			"name":"J4-PART2"
		},
		{
			"children":[
				0,
				1
			],
			"name":"J4_ASM",
			"translation":[
				0,
				0.7229999899864197,
				-0.11550000309944153
			]
		},
		{
			"children":[
				2
			],
			"name":"NOVA2_ASM_ASM",
			"translation":[
				0,
				-0.7229999899864197,
				0
			]
		}
	],
	"materials":[
		{
			"doubleSided":true,
			"name":"mat_0",
			"pbrMetallicRoughness":{
				"baseColorFactor":[
					0.6038273572921753,
					0.6038273572921753,
					0.6038273572921753,
					1
				],
				"metallicFactor":0
			}
		},
		{
			"doubleSided":true,
			"name":"Material",
			"pbrMetallicRoughness":{
				"baseColorFactor":[
					0.0339999683201313,
					0.30299901962280273,
					0.6039999723434448,
					1
				],
				"metallicFactor":0,
				"roughnessFactor":0.5
			}
		}
	],
	"meshes":[
		{
			"name":"J4-PART1",
			"primitives":[
				{
					"attributes":{
						"POSITION":0,
						"NORMAL":1
					},
					"indices":2,
					"material":0
				}
			]
		},
		{
			"name":"J4-PART2",
			"primitives":[
				{
					"attributes":{
						"POSITION":3,
						"NORMAL":4
					},
					"indices":5,
					"material":1
				}
			]
		}
	],
	"accessors":[
		{
			"bufferView":0,
			"componentType":5126,
			"count":2289,
			"max":[
				0.035500023514032364,
				0.07649999856948853,
				0.07149998098611832
			],
			"min":[
				-0.035500023514032364,
				-0.03499998897314072,
				-0.03499989211559296
			],
			"type":"VEC3"
		},
		{
			"bufferView":1,
			"componentType":5126,
			"count":2289,
			"type":"VEC3"
		},
		{
			"bufferView":2,
			"componentType":5123,
			"count":8676,
			"type":"SCALAR"
		},
		{
			"bufferView":3,
			"componentType":5126,
			"count":5542,
			"max":[
				0.0350213423371315,
				0.03600000962615013,
				0.03521890193223953
			],
			"min":[
				-0.0350213460624218,
				-0.03494996950030327,
				-0.03484972193837166
			],
			"type":"VEC3"
		},
		{
			"bufferView":4,
			"componentType":5126,
			"count":5542,
			"type":"VEC3"
		},
		{
			"bufferView":5,
			"componentType":5123,
			"count":22086,
			"type":"SCALAR"
		}
	],
	"bufferViews":[
		{
			"buffer":0,
			"byteLength":27468,
			"byteOffset":0,
			"target":34962
		},
		{
			"buffer":0,
			"byteLength":27468,
			"byteOffset":27468,
			"target":34962
		},
		{
			"buffer":0,
			"byteLength":17352,
			"byteOffset":54936,
			"target":34963
		},
		{
			"buffer":0,
			"byteLength":66504,
			"byteOffset":72288,
			"target":34962
		},
		{
			"buffer":0,
			"byteLength":66504,
			"byteOffset":138792,
			"target":34962
		},
		{
			"buffer":0,
			"byteLength":44172,
			"byteOffset":205296,
			"target":34963
		}
	],
	"buffers":[
		{
			"byteLength":249468,
			"uri":"NOVA2_J4_ASM.bin"
		}
	]
}
