{
	"asset":{
		"generator":"Khronos glTF Blender I/O v4.1.63",
		"version":"2.0"
	},
	"scene":0,
	"scenes":[
		{
			"name":"Scene",
			"nodes":[
				5
			]
		}
	],
	"nodes":[
		{
			"mesh":0,
			"name":"BASE-PART1",
			"rotation":[
				0,
				0,
				0.38705068826675415,
				0.9220584630966187
			],
			"translation":[
				-0.4262850880622864,
				-0.2936718463897705,
				-0.020213564857840538
			]
		},
		{
			"mesh":1,
			"name":"BASE-PART2",
			"rotation":[
				0.27368617057800293,
				-0.6519938111305237,
				0.27368617057800293,
				0.6519937515258789
			],
			"translation":[
				0.14455002546310425,
				-0.6856814026832581,
				0.04003643989562988
			]
		},
		{
			"mesh":2,
			"name":"BASE-PART3",
			"rotation":[
				-0.26750388741493225,
				-0.6545546054840088,
				0.6545546054840088,
				0.26750385761260986
			],
			"translation":[
				0.04525605961680412,
				-0.6022595763206482,
				-0.020213564857840538
			]
		},
		{
			"mesh":3,
			"name":"BASE-PART4",
			"rotation":[
				-0.27368617057800293,
				0.6519938111305237,
				0.27368617057800293,
				0.6519937515258789
			],
			"translation":[
				0.17411762475967407,
				-0.714694619178772,
				-0.01448238454759121
			]
		},
		{
			"children":[
				0,
				1,
				2,
				3
			],
			"name":"BASE_ASM",
			"rotation":[
				0,
				0,
				-0.38705068826675415,
				0.9220584630966187
			],
			"translation":[
				0.3981761336326599,
				0.5835078954696655,
				0.022213561460375786
			]
		},
		{
			"children":[
				4
			],
			"name":"NOVA2_ASM_ASM"
		}
	],
	"materials":[
		{
			"doubleSided":true,
			"name":"mat_0",
			"pbrMetallicRoughness":{
				"baseColorFactor":[
					0.6038273572921753,
					0.6038273572921753,
					0.6038273572921753,
					1
				],
				"metallicFactor":0,
				"roughnessFactor":0.5
			}
		},
		{
			"doubleSided":true,
			"name":"Material",
			"pbrMetallicRoughness":{
				"baseColorFactor":[
					0.0339999683201313,
					0.30299901962280273,
					0.6039999723434448,
					1
				],
				"metallicFactor":0,
				"roughnessFactor":0.5
			}
		}
	],
	"meshes":[
		{
			"name":"BASE-PART1",
			"primitives":[
				{
					"attributes":{
						"POSITION":0,
						"NORMAL":1
					},
					"indices":2,
					"material":0
				}
			]
		},
		{
			"name":"BASE-PART2",
			"primitives":[
				{
					"attributes":{
						"POSITION":3,
						"NORMAL":4
					},
					"indices":5,
					"material":0
				}
			]
		},
		{
			"name":"BASE-PART3",
			"primitives":[
				{
					"attributes":{
						"POSITION":6,
						"NORMAL":7
					},
					"indices":8,
					"material":1
				}
			]
		},
		{
			"name":"BASE-PART4",
			"primitives":[
				{
					"attributes":{
						"POSITION":9,
						"NORMAL":10
					},
					"indices":11,
					"material":0
				}
			]
		}
	],
	"accessors":[
		{
			"bufferView":0,
			"componentType":5126,
			"count":5690,
			"max":[
				0.17000000178813934,
				-0.5526999831199646,
				0.05999968200922012
			],
			"min":[
				0.05000000074505806,
				-0.6875026226043701,
				-0.05999999865889549
			],
			"type":"VEC3"
		},
		{
			"bufferView":1,
			"componentType":5126,
			"count":5690,
			"type":"VEC3"
		},
		{
			"bufferView":2,
			"componentType":5123,
			"count":18378,
			"type":"SCALAR"
		},
		{
			"bufferView":3,
			"componentType":5126,
			"count":4439,
			"max":[
				7.105427695090692e-18,
				0.007849999703466892,
				0.007846353575587273
			],
			"min":[
				-0.004999999888241291,
				-0.005499999970197678,
				-0.007846353575587273
			],
			"type":"VEC3"
		},
		{
			"bufferView":4,
			"componentType":5126,
			"count":4439,
			"type":"VEC3"
		},
		{
			"bufferView":5,
			"componentType":5123,
			"count":20040,
			"type":"SCALAR"
		},
		{
			"bufferView":6,
			"componentType":5126,
			"count":448,
			"max":[
				5.684342156072553e-17,
				0.04399999976158142,
				0.04399999976158142
			],
			"min":[
				-0.006500000134110451,
				-0.04399999976158142,
				-0.04399999976158142
			],
			"type":"VEC3"
		},
		{
			"bufferView":7,
			"componentType":5126,
			"count":448,
			"type":"VEC3"
		},
		{
			"bufferView":8,
			"componentType":5123,
			"count":1320,
			"type":"SCALAR"
		},
		{
			"bufferView":9,
			"componentType":5126,
			"count":798,
			"max":[
				-0.02426689676940441,
				0.09442472457885742,
				0.004550000187009573
			],
			"min":[
				-0.07881689816713333,
				0.03687472641468048,
				-0.004550000187009573
			],
			"type":"VEC3"
		},
		{
			"bufferView":10,
			"componentType":5126,
			"count":798,
			"type":"VEC3"
		},
		{
			"bufferView":11,
			"componentType":5123,
			"count":3516,
			"type":"SCALAR"
		}
	],
	"bufferViews":[
		{
			"buffer":0,
			"byteLength":68280,
			"byteOffset":0,
			"target":34962
		},
		{
			"buffer":0,
			"byteLength":68280,
			"byteOffset":68280,
			"target":34962
		},
		{
			"buffer":0,
			"byteLength":36756,
			"byteOffset":136560,
			"target":34963
		},
		{
			"buffer":0,
			"byteLength":53268,
			"byteOffset":173316,
			"target":34962
		},
		{
			"buffer":0,
			"byteLength":53268,
			"byteOffset":226584,
			"target":34962
		},
		{
			"buffer":0,
			"byteLength":40080,
			"byteOffset":279852,
			"target":34963
		},
		{
			"buffer":0,
			"byteLength":5376,
			"byteOffset":319932,
			"target":34962
		},
		{
			"buffer":0,
			"byteLength":5376,
			"byteOffset":325308,
			"target":34962
		},
		{
			"buffer":0,
			"byteLength":2640,
			"byteOffset":330684,
			"target":34963
		},
		{
			"buffer":0,
			"byteLength":9576,
			"byteOffset":333324,
			"target":34962
		},
		{
			"buffer":0,
			"byteLength":9576,
			"byteOffset":342900,
			"target":34962
		},
		{
			"buffer":0,
			"byteLength":7032,
			"byteOffset":352476,
			"target":34963
		}
	],
	"buffers":[
		{
			"byteLength":359508,
			"uri":"NOVA2_BASE_ASM.bin"
		}
	]
}
