{
	"asset":{
		"generator":"Khronos glTF Blender I/O v4.1.63",
		"version":"2.0"
	},
	"scene":0,
	"scenes":[
		{
			"name":"Scene",
			"nodes":[
				3
			]
		}
	],
	"nodes":[
		{
			"mesh":0,
			"name":"J1-PART1"
		},
		{
			"mesh":1,
			"name":"J1-PART2"
		},
		{
			"children":[
				0,
				1
			],
			"name":"J1_ASM",
			"rotation":[
				0,
				-0.7071068286895752,
				0,
				0.7071067094802856
			],
			"translation":[
				-0.0010000000474974513,
				0.6879299879074097,
				-0.1080000028014183
			]
		},
		{
			"children":[
				2
			],
			"name":"NOVA2_ASM_ASM"
		}
	],
	"materials":[
		{
			"doubleSided":true,
			"name":"mat_0",
			"pbrMetallicRoughness":{
				"baseColorFactor":[
					0.6038273572921753,
					0.6038273572921753,
					0.6038273572921753,
					1
				],
				"metallicFactor":0
			}
		},
		{
			"doubleSided":true,
			"name":"Material",
			"pbrMetallicRoughness":{
				"baseColorFactor":[
					0.0339999683201313,
					0.30299901962280273,
					0.6039999723434448,
					1
				],
				"metallicFactor":0,
				"roughnessFactor":0.5
			}
		}
	],
	"meshes":[
		{
			"name":"J1-PART1",
			"primitives":[
				{
					"attributes":{
						"POSITION":0,
						"NORMAL":1
					},
					"indices":2,
					"material":0
				}
			]
		},
		{
			"name":"J1-PART2",
			"primitives":[
				{
					"attributes":{
						"POSITION":3,
						"NORMAL":4
					},
					"indices":5,
					"material":1
				}
			]
		}
	],
	"accessors":[
		{
			"bufferView":0,
			"componentType":5126,
			"count":1914,
			"max":[
				0.1544998586177826,
				-0.42542994022369385,
				0.04349324852228165
			],
			"min":[
				0.03240000084042549,
				-0.5580369830131531,
				-0.04549314081668854
			],
			"type":"VEC3"
		},
		{
			"bufferView":1,
			"componentType":5126,
			"count":1914,
			"type":"VEC3"
		},
		{
			"bufferView":2,
			"componentType":5123,
			"count":7212,
			"type":"SCALAR"
		},
		{
			"bufferView":3,
			"componentType":5126,
			"count":4053,
			"max":[
				0.1546332687139511,
				-0.4254299998283386,
				0.04314538091421127
			],
			"min":[
				0.10999958217144012,
				-0.5159302949905396,
				-0.045143477618694305
			],
			"type":"VEC3"
		},
		{
			"bufferView":4,
			"componentType":5126,
			"count":4053,
			"type":"VEC3"
		},
		{
			"bufferView":5,
			"componentType":5123,
			"count":15534,
			"type":"SCALAR"
		}
	],
	"bufferViews":[
		{
			"buffer":0,
			"byteLength":22968,
			"byteOffset":0,
			"target":34962
		},
		{
			"buffer":0,
			"byteLength":22968,
			"byteOffset":22968,
			"target":34962
		},
		{
			"buffer":0,
			"byteLength":14424,
			"byteOffset":45936,
			"target":34963
		},
		{
			"buffer":0,
			"byteLength":48636,
			"byteOffset":60360,
			"target":34962
		},
		{
			"buffer":0,
			"byteLength":48636,
			"byteOffset":108996,
			"target":34962
		},
		{
			"buffer":0,
			"byteLength":31068,
			"byteOffset":157632,
			"target":34963
		}
	],
	"buffers":[
		{
			"byteLength":188700,
			"uri":"NOVA2_J1_ASM.bin"
		}
	]
}
