{
	"asset":{
		"generator":"Khronos glTF Blender I/O v4.1.63",
		"version":"2.0"
	},
	"scene":0,
	"scenes":[
		{
			"name":"Scene",
			"nodes":[
				0,
				1
			]
		}
	],
	"nodes":[
		{
			"mesh":0,
			"name":"J3-PART1",
			"scale":[
				0.0010000000474974513,
				0.0010000000474974513,
				0.0010000000474974513
			]
		},
		{
			"mesh":1,
			"name":"J3-PART2",
			"scale":[
				0.0010000000474974513,
				0.0010000000474974513,
				0.0010000000474974513
			]
		}
	],
	"materials":[
		{
			"doubleSided":true,
			"name":"Mat_3.006",
			"pbrMetallicRoughness":{
				"baseColorFactor":[
					0.03439342603087425,
					0.3032865822315216,
					0.6039246916770935,
					1
				],
				"metallicFactor":0,
				"roughnessFactor":0.30000001192092896
			}
		},
		{
			"doubleSided":true,
			"name":"Mat_2.003",
			"pbrMetallicRoughness":{
				"baseColorFactor":[
					0.6038273572921753,
					0.6038273572921753,
					0.6038273572921753,
					1
				],
				"metallicFactor":0,
				"roughnessFactor":0.30000001192092896
			}
		}
	],
	"meshes":[
		{
			"name":"Mesh_0.008",
			"primitives":[
				{
					"attributes":{
						"POSITION":0,
						"NORMAL":1
					},
					"indices":2,
					"material":0
				}
			]
		},
		{
			"name":"Mesh_1.008",
			"primitives":[
				{
					"attributes":{
						"POSITION":3,
						"NORMAL":4
					},
					"indices":5,
					"material":1
				}
			]
		}
	],
	"accessors":[
		{
			"bufferView":0,
			"componentType":5126,
			"count":11368,
			"max":[
				40.998538970947266,
				-48.41788864135742,
				260.9712829589844
			],
			"min":[
				-40.9985466003418,
				-81.60047912597656,
				-40.7735595703125
			],
			"type":"VEC3"
		},
		{
			"bufferView":1,
			"componentType":5126,
			"count":11368,
			"type":"VEC3"
		},
		{
			"bufferView":2,
			"componentType":5123,
			"count":52494,
			"type":"SCALAR"
		},
		{
			"bufferView":3,
			"componentType":5126,
			"count":4702,
			"max":[
				40.999977111816406,
				35.58211135864258,
				260.9640197753906
			],
			"min":[
				-40.99996566772461,
				-52.91788864135742,
				-40.764007568359375
			],
			"type":"VEC3"
		},
		{
			"bufferView":4,
			"componentType":5126,
			"count":4702,
			"type":"VEC3"
		},
		{
			"bufferView":5,
			"componentType":5123,
			"count":20046,
			"type":"SCALAR"
		}
	],
	"bufferViews":[
		{
			"buffer":0,
			"byteLength":136416,
			"byteOffset":0,
			"target":34962
		},
		{
			"buffer":0,
			"byteLength":136416,
			"byteOffset":136416,
			"target":34962
		},
		{
			"buffer":0,
			"byteLength":104988,
			"byteOffset":272832,
			"target":34963
		},
		{
			"buffer":0,
			"byteLength":56424,
			"byteOffset":377820,
			"target":34962
		},
		{
			"buffer":0,
			"byteLength":56424,
			"byteOffset":434244,
			"target":34962
		},
		{
			"buffer":0,
			"byteLength":40092,
			"byteOffset":490668,
			"target":34963
		}
	],
	"buffers":[
		{
			"byteLength":530760,
			"uri":"NOVA2_J3.bin"
		}
	]
}
