{"asset":{"generator":"3D Builder","version":"2.0"},"scene":0,"scenes":[{"nodes":[0,1,2,3,4,5,6,7,8,9,10,11,12,13,14,15,16,17,18,19,20,21]}],"nodes":[{"mesh":0,"matrix":[1,0,0,0,0,-1.1920928955078125E-7,-0.99999988079071045,0,0,0.99999988079071045,-1.1920928955078125E-7,0,9.30175792746013E-6,2.1069478988647461,5.4095859527587891,1]},{"mesh":1,"matrix":[1,0,0,0,0,-1.1920928955078125E-7,-0.99999988079071045,0,0,0.99999988079071045,-1.1920928955078125E-7,0,9.30175792746013E-6,2.1069478988647461,5.4095859527587891,1]},{"mesh":2,"matrix":[1,0,0,0,0,-1.1920928955078125E-7,-0.99999988079071045,0,0,0.99999988079071045,-1.1920928955078125E-7,0,9.30175792746013E-6,2.1069478988647461,5.4095859527587891,1]},{"mesh":3,"matrix":[1,0,0,0,0,-1.1920928955078125E-7,-0.99999988079071045,0,0,0.99999988079071045,-1.1920928955078125E-7,0,9.30175792746013E-6,2.1069478988647461,5.4095859527587891,1]},{"mesh":4,"matrix":[1,0,0,0,0,-1.1920928955078125E-7,-0.99999988079071045,0,0,0.99999988079071045,-1.1920928955078125E-7,0,9.30175792746013E-6,2.1069478988647461,5.4095859527587891,1]},{"mesh":5,"matrix":[1,0,0,0,0,-1.1920928955078125E-7,-0.99999988079071045,0,0,0.99999988079071045,-1.1920928955078125E-7,0,9.30175792746013E-6,2.1069478988647461,5.4095859527587891,1]},{"mesh":6,"matrix":[1,0,0,0,0,-1.1920928955078125E-7,-0.99999988079071045,0,0,0.99999988079071045,-1.1920928955078125E-7,0,9.30175792746013E-6,2.1069478988647461,5.4095859527587891,1]},{"mesh":7,"matrix":[1,0,0,0,0,-1.1920928955078125E-7,-0.99999988079071045,0,0,0.99999988079071045,-1.1920928955078125E-7,0,9.30175792746013E-6,2.1069478988647461,5.4095859527587891,1]},{"mesh":8,"matrix":[1,0,0,0,0,-1.1920928955078125E-7,-0.99999988079071045,0,0,0.99999988079071045,-1.1920928955078125E-7,0,9.30175792746013E-6,2.1069478988647461,5.4095859527587891,1]},{"mesh":9,"matrix":[1,0,0,0,0,-1.1920928955078125E-7,-0.99999988079071045,0,0,0.99999988079071045,-1.1920928955078125E-7,0,9.30175792746013E-6,2.1069478988647461,5.4095859527587891,1]},{"mesh":10,"matrix":[1,0,0,0,0,-1.1920928955078125E-7,-0.99999988079071045,0,0,0.99999988079071045,-1.1920928955078125E-7,0,9.30175792746013E-6,2.1069478988647461,5.4095859527587891,1]},{"mesh":11,"matrix":[1,0,0,0,0,-1.1920928955078125E-7,-0.99999988079071045,0,0,0.99999988079071045,-1.1920928955078125E-7,0,9.30175792746013E-6,2.1069478988647461,5.4095859527587891,1]},{"mesh":12,"matrix":[1,0,0,0,0,-1.1920928955078125E-7,-0.99999988079071045,0,0,0.99999988079071045,-1.1920928955078125E-7,0,9.30175792746013E-6,2.1069478988647461,5.4095859527587891,1]},{"mesh":13,"matrix":[1,0,0,0,0,-1.1920928955078125E-7,-0.99999988079071045,0,0,0.99999988079071045,-1.1920928955078125E-7,0,9.30175792746013E-6,2.1069478988647461,5.4095859527587891,1]},{"mesh":14,"matrix":[1,0,0,0,0,-1.1920928955078125E-7,-0.99999988079071045,0,0,0.99999988079071045,-1.1920928955078125E-7,0,9.30175792746013E-6,2.1069478988647461,5.4095859527587891,1]},{"mesh":15,"matrix":[1,0,0,0,0,-1.1920928955078125E-7,-0.99999988079071045,0,0,0.99999988079071045,-1.1920928955078125E-7,0,9.30175792746013E-6,2.1069478988647461,5.4095859527587891,1]},{"mesh":16,"matrix":[1,0,0,0,0,-1.1920928955078125E-7,-0.99999988079071045,0,0,0.99999988079071045,-1.1920928955078125E-7,0,9.30175792746013E-6,2.1069478988647461,5.4095859527587891,1]},{"mesh":17,"matrix":[1,0,0,0,0,-1.1920928955078125E-7,-0.99999988079071045,0,0,0.99999988079071045,-1.1920928955078125E-7,0,9.30175792746013E-6,2.1069478988647461,5.4095859527587891,1]},{"mesh":18,"matrix":[1,0,0,0,0,-1.1920928955078125E-7,-0.99999988079071045,0,0,0.99999988079071045,-1.1920928955078125E-7,0,9.30175792746013E-6,2.1069478988647461,5.4095859527587891,1]},{"mesh":19,"matrix":[1,0,0,0,0,-1.1920928955078125E-7,-0.99999988079071045,0,0,0.99999988079071045,-1.1920928955078125E-7,0,9.30175792746013E-6,2.1069478988647461,5.4095859527587891,1]},{"mesh":20,"matrix":[39.370079040527344,0,0,0,0,-4.6932791519793682E-6,-39.370075225830078,0,0,39.370075225830078,-4.6932791519793682E-6,0,9.30175792746013E-6,2.1069478988647461,5.4095859527587891,1]},{"mesh":21,"matrix":[39.370079040527344,0,0,0,0,-4.6932791519793682E-6,-39.370075225830078,0,0,39.370075225830078,-4.6932791519793682E-6,0,9.30175792746013E-6,2.1069478988647461,5.4095859527587891,1]}],"meshes":[{"primitives":[{"attributes":{"POSITION":0},"mode":4,"indices":1,"material":0}]},{"primitives":[{"attributes":{"POSITION":2},"mode":4,"indices":3,"material":1}]},{"primitives":[{"attributes":{"POSITION":4},"mode":4,"indices":5,"material":2}]},{"primitives":[{"attributes":{"POSITION":6},"mode":4,"indices":7,"material":3}]},{"primitives":[{"attributes":{"POSITION":8},"mode":4,"indices":9,"material":4}]},{"primitives":[{"attributes":{"POSITION":10},"mode":4,"indices":11,"material":5}]},{"primitives":[{"attributes":{"POSITION":12},"mode":4,"indices":13,"material":6}]},{"primitives":[{"attributes":{"POSITION":14},"mode":4,"indices":15,"material":7}]},{"primitives":[{"attributes":{"POSITION":16},"mode":4,"indices":17,"material":8}]},{"primitives":[{"attributes":{"POSITION":18},"mode":4,"indices":19,"material":9}]},{"primitives":[{"attributes":{"POSITION":20},"mode":4,"indices":21,"material":10}]},{"primitives":[{"attributes":{"POSITION":22},"mode":4,"indices":23,"material":11}]},{"primitives":[{"attributes":{"POSITION":24},"mode":4,"indices":25,"material":12}]},{"primitives":[{"attributes":{"POSITION":26},"mode":4,"indices":27,"material":13}]},{"primitives":[{"attributes":{"POSITION":28},"mode":4,"indices":29,"material":14}]},{"primitives":[{"attributes":{"POSITION":30},"mode":4,"indices":31,"material":15}]},{"primitives":[{"attributes":{"POSITION":32},"mode":4,"indices":33,"material":16}]},{"primitives":[{"attributes":{"POSITION":34},"mode":4,"indices":35,"material":17}]},{"primitives":[{"attributes":{"POSITION":36},"mode":4,"indices":37,"material":18}]},{"primitives":[{"attributes":{"POSITION":38},"mode":4,"indices":39,"material":19}]},{"primitives":[{"attributes":{"POSITION":40},"mode":4,"indices":41,"material":20}]},{"primitives":[{"attributes":{"POSITION":42},"mode":4,"indices":43,"material":21}]}],"materials":[{"name":"Mat_7","pbrMetallicRoughness":{"baseColorFactor":[0.60382729768753052,0.60382729768753052,0.60382729768753052,1],"metallicFactor":0,"roughnessFactor":0.30000001192092896},"alphaMode":"OPAQUE"},{"name":"Mat_1","pbrMetallicRoughness":{"baseColorFactor":[0.60382729768753052,0.60382729768753052,0.60382729768753052,1],"metallicFactor":0,"roughnessFactor":0.30000001192092896},"alphaMode":"OPAQUE"},{"name":"Mat_8","pbrMetallicRoughness":{"baseColorFactor":[0.60382729768753052,0.60382729768753052,0.60382729768753052,1],"metallicFactor":0,"roughnessFactor":0.30000001192092896},"alphaMode":"OPAQUE"},{"name":"Mat_2","pbrMetallicRoughness":{"baseColorFactor":[0.60382729768753052,0.60382729768753052,0.60382729768753052,1],"metallicFactor":0,"roughnessFactor":0.30000001192092896},"alphaMode":"OPAQUE"},{"name":"Mat_3","pbrMetallicRoughness":{"baseColorFactor":[0.60382729768753052,0.60382729768753052,0.60382729768753052,1],"metallicFactor":0,"roughnessFactor":0.30000001192092896},"alphaMode":"OPAQUE"},{"name":"Mat_9","pbrMetallicRoughness":{"baseColorFactor":[0.60382729768753052,0.60382729768753052,0.60382729768753052,1],"metallicFactor":0,"roughnessFactor":0.30000001192092896},"alphaMode":"OPAQUE"},{"name":"Mat_4","pbrMetallicRoughness":{"baseColorFactor":[0.60382729768753052,0.60382729768753052,0.60382729768753052,1],"metallicFactor":0,"roughnessFactor":0.30000001192092896},"alphaMode":"OPAQUE"},{"name":"Mat_5","pbrMetallicRoughness":{"baseColorFactor":[0.60382729768753052,0.60382729768753052,0.60382729768753052,1],"metallicFactor":0,"roughnessFactor":0.30000001192092896},"alphaMode":"OPAQUE"},{"name":"Mat_11","pbrMetallicRoughness":{"baseColorFactor":[0.60382729768753052,0.60382729768753052,0.60382729768753052,1],"metallicFactor":0,"roughnessFactor":0.30000001192092896},"alphaMode":"OPAQUE"},{"name":"Mat_12","pbrMetallicRoughness":{"baseColorFactor":[0.60382729768753052,0.60382729768753052,0.60382729768753052,1],"metallicFactor":0,"roughnessFactor":0.30000001192092896},"alphaMode":"OPAQUE"},{"name":"Mat_13","pbrMetallicRoughness":{"baseColorFactor":[0.60382729768753052,0.60382729768753052,0.60382729768753052,1],"metallicFactor":0,"roughnessFactor":0.30000001192092896},"alphaMode":"OPAQUE"},{"name":"Mat_14","pbrMetallicRoughness":{"baseColorFactor":[0.60382729768753052,0.60382729768753052,0.60382729768753052,1],"metallicFactor":0,"roughnessFactor":0.30000001192092896},"alphaMode":"OPAQUE"},{"name":"Mat_15","pbrMetallicRoughness":{"baseColorFactor":[0.60382729768753052,0.60382729768753052,0.60382729768753052,1],"metallicFactor":0,"roughnessFactor":0.30000001192092896},"alphaMode":"OPAQUE"},{"name":"Mat_16","pbrMetallicRoughness":{"baseColorFactor":[0.60382729768753052,0.60382729768753052,0.60382729768753052,1],"metallicFactor":0,"roughnessFactor":0.30000001192092896},"alphaMode":"OPAQUE"},{"name":"Mat_17","pbrMetallicRoughness":{"baseColorFactor":[0.60382729768753052,0.60382729768753052,0.60382729768753052,1],"metallicFactor":0,"roughnessFactor":0.30000001192092896},"alphaMode":"OPAQUE"},{"name":"Mat_18","pbrMetallicRoughness":{"baseColorFactor":[0.60382729768753052,0.60382729768753052,0.60382729768753052,1],"metallicFactor":0,"roughnessFactor":0.30000001192092896},"alphaMode":"OPAQUE"},{"name":"Mat_19","pbrMetallicRoughness":{"baseColorFactor":[0.60382729768753052,0.60382729768753052,0.60382729768753052,1],"metallicFactor":0,"roughnessFactor":0.30000001192092896},"alphaMode":"OPAQUE"},{"name":"Mat_20","pbrMetallicRoughness":{"baseColorFactor":[0.60382729768753052,0.60382729768753052,0.60382729768753052,1],"metallicFactor":0,"roughnessFactor":0.30000001192092896},"alphaMode":"OPAQUE"},{"name":"Mat_21","pbrMetallicRoughness":{"baseColorFactor":[0.60382729768753052,0.60382729768753052,0.60382729768753052,1],"metallicFactor":0,"roughnessFactor":0.30000001192092896},"alphaMode":"OPAQUE"},{"name":"Mat_22","pbrMetallicRoughness":{"baseColorFactor":[0.60382729768753052,0.60382729768753052,0.60382729768753052,1],"metallicFactor":0,"roughnessFactor":0.30000001192092896},"alphaMode":"OPAQUE"},{"name":"Mat_6","pbrMetallicRoughness":{"baseColorFactor":[0.60382729768753052,0.60382729768753052,0.60382729768753052,1],"metallicFactor":0,"roughnessFactor":0.30000001192092896},"alphaMode":"OPAQUE"},{"name":"Mat_10","pbrMetallicRoughness":{"baseColorFactor":[0.60382729768753052,0.60382729768753052,0.60382729768753052,1],"metallicFactor":0,"roughnessFactor":0.30000001192092896},"alphaMode":"OPAQUE"}],"accessors":[{"bufferView":0,"byteOffset":0,"count":2522,"componentType":5126,"type":"VEC3","min":[-44.998744964599609,-539.25787353515625,22.499935150146484],"max":[44.998737335205078,-172.574951171875,119.5]},{"bufferView":1,"byteOffset":0,"count":15024,"componentType":5125,"type":"SCALAR"},{"bufferView":2,"byteOffset":0,"count":2910,"componentType":5126,"type":"VEC3","min":[-60.0000114440918,-129.39300537109375,-61.999671936035156],"max":[59.9999885559082,5.4095869064331055,57.999992370605469]},{"bufferView":3,"byteOffset":0,"count":17496,"componentType":5125,"type":"SCALAR"},{"bufferView":4,"byteOffset":0,"count":5693,"componentType":5126,"type":"VEC3","min":[-44.977684020996094,-539.256591796875,114.99992370605469],"max":[44.97900390625,-172.57455444335937,151.99513244628906]},{"bufferView":5,"byteOffset":0,"count":34230,"componentType":5125,"type":"SCALAR"},{"bufferView":6,"byteOffset":0,"count":1756,"componentType":5126,"type":"VEC3","min":[2.1501023769378662,-7.9430074691772461,-62.249992370605469],"max":[17.8501033782959,5.4069919586181641,-57.249992370605469]},{"bufferView":7,"byteOffset":0,"count":10536,"componentType":5125,"type":"SCALAR"},{"bufferView":8,"byteOffset":0,"count":128,"componentType":5126,"type":"VEC3","min":[-44.0000114440918,-129.39300537109375,-46.0000114440918],"max":[43.9999885559082,-122.89299011230469,41.999980926513672]},{"bufferView":9,"byteOffset":0,"count":768,"componentType":5125,"type":"SCALAR"},{"bufferView":10,"byteOffset":0,"count":4838,"componentType":5126,"type":"VEC3","min":[-40.9985466003418,-758.8675537109375,-44.682651519775391],"max":[40.998538970947266,-457.13003540039062,-11.500054359436035]},{"bufferView":11,"byteOffset":0,"count":29100,"componentType":5125,"type":"SCALAR"},{"bufferView":12,"byteOffset":0,"count":314,"componentType":5126,"type":"VEC3","min":[5.45010232925415,-53.093002319335938,-86.5480728149414],"max":[14.550102233886719,4.456993579864502,-31.998079299926758]},{"bufferView":13,"byteOffset":0,"count":1872,"componentType":5125,"type":"SCALAR"},{"bufferView":14,"byteOffset":0,"count":839,"componentType":5126,"type":"VEC3","min":[-44.498554229736328,-262.50003051757813,-46.499874114990234],"max":[44.498561859130859,-129.89302062988281,75.599967956542969]},{"bufferView":15,"byteOffset":0,"count":5022,"componentType":5125,"type":"SCALAR"},{"bufferView":16,"byteOffset":0,"count":1046,"componentType":5126,"type":"VEC3","min":[-35.50018310546875,-799.4998779296875,43.999923706054687],"max":[35.497127532958984,-687.99993896484375,150.49978637695312]},{"bufferView":17,"byteOffset":0,"count":6264,"componentType":5125,"type":"SCALAR"},{"bufferView":18,"byteOffset":0,"count":2848,"componentType":5126,"type":"VEC3","min":[-35.009128570556641,-758.99993896484375,80.281005859375],"max":[35.0159912109375,-688.04998779296875,150.349609375]},{"bufferView":19,"byteOffset":0,"count":17124,"componentType":5125,"type":"SCALAR"},{"bufferView":20,"byteOffset":0,"count":1753,"componentType":5126,"type":"VEC3","min":[-35.722629547119141,-878.26910400390625,69.499885559082031],"max":[35.722305297851562,-786.9947509765625,179.99989318847656]},{"bufferView":21,"byteOffset":0,"count":10434,"componentType":5125,"type":"SCALAR"},{"bufferView":22,"byteOffset":0,"count":3191,"componentType":5126,"type":"VEC3","min":[-35.383335113525391,-878.3731689453125,53.7164421081543],"max":[35.383052825927734,-808.45703125,137.49996948242187]},{"bufferView":23,"byteOffset":0,"count":19134,"componentType":5125,"type":"SCALAR"},{"bufferView":24,"byteOffset":0,"count":7931,"componentType":5126,"type":"VEC3","min":[-28.250164031982422,-871.2498779296875,56.015605926513672],"max":[28.249835968017578,-814.7498779296875,62.499904632568359]},{"bufferView":25,"byteOffset":0,"count":47586,"componentType":5125,"type":"SCALAR"},{"bufferView":26,"byteOffset":0,"count":3223,"componentType":5126,"type":"VEC3","min":[-17.500164031982422,-860.4998779296875,53.49993896484375],"max":[17.499835968017578,-825.4998779296875,58.509086608886719]},{"bufferView":27,"byteOffset":0,"count":19350,"componentType":5125,"type":"SCALAR"},{"bufferView":28,"byteOffset":0,"count":1002,"componentType":5126,"type":"VEC3","min":[-34.500164031982422,-877.49468994140625,160.4998779296875],"max":[34.499835968017578,-808.50506591796875,166.99989318847656]},{"bufferView":29,"byteOffset":0,"count":6012,"componentType":5125,"type":"SCALAR"},{"bufferView":30,"byteOffset":0,"count":3971,"componentType":5126,"type":"VEC3","min":[-35.000164031982422,-877.9998779296875,167.4998779296875],"max":[34.999835968017578,-807.9998779296875,203.4998779296875]},{"bufferView":31,"byteOffset":0,"count":23730,"componentType":5125,"type":"SCALAR"},{"bufferView":32,"byteOffset":0,"count":644,"componentType":5126,"type":"VEC3","min":[-24.900163650512695,-861.9998779296875,195.19985961914062],"max":[24.899835586547852,-823.9998779296875,203.19987487792969]},{"bufferView":33,"byteOffset":0,"count":3876,"componentType":5125,"type":"SCALAR"},{"bufferView":34,"byteOffset":0,"count":9673,"componentType":5126,"type":"VEC3","min":[-5.7717580795288086,-829.0826416015625,186.42732238769531],"max":[5.7714300155639648,-801.4998779296875,196.57244873046875]},{"bufferView":35,"byteOffset":0,"count":58158,"componentType":5125,"type":"SCALAR"},{"bufferView":36,"byteOffset":0,"count":405,"componentType":5126,"type":"VEC3","min":[-23.984769821166992,-845.499755859375,197.19990539550781],"max":[-19.015558242797852,-840.5,203.19990539550781]},{"bufferView":37,"byteOffset":0,"count":2418,"componentType":5125,"type":"SCALAR"},{"bufferView":38,"byteOffset":0,"count":405,"componentType":5126,"type":"VEC3","min":[19.015230178833008,-845.499755859375,197.19990539550781],"max":[23.984441757202148,-840.5,203.19990539550781]},{"bufferView":39,"byteOffset":0,"count":2418,"componentType":5125,"type":"SCALAR"},{"bufferView":40,"byteOffset":0,"count":1491,"componentType":5126,"type":"VEC3","min":[-1.121272087097168,-6.66749906539917,-1.1847310066223145],"max":[1.121192455291748,-4.3687992095947266,-0.050824221223592758]},{"bufferView":41,"byteOffset":0,"count":8982,"componentType":5125,"type":"SCALAR"},{"bufferView":42,"byteOffset":0,"count":1910,"componentType":5126,"type":"VEC3","min":[-1.0413991212844849,-19.275144577026367,-0.40640184283256531],"max":[1.0413501262664795,-11.611303329467773,1.8414472341537476]},{"bufferView":43,"byteOffset":0,"count":11448,"componentType":5125,"type":"SCALAR"}],"bufferViews":[{"buffer":0,"byteOffset":0,"byteLength":30264,"byteStride":12,"target":34962},{"buffer":0,"byteOffset":30264,"byteLength":60096,"target":34963},{"buffer":0,"byteOffset":90360,"byteLength":34920,"byteStride":12,"target":34962},{"buffer":0,"byteOffset":125280,"byteLength":69984,"target":34963},{"buffer":0,"byteOffset":195264,"byteLength":68316,"byteStride":12,"target":34962},{"buffer":0,"byteOffset":263580,"byteLength":136920,"target":34963},{"buffer":0,"byteOffset":400500,"byteLength":21072,"byteStride":12,"target":34962},{"buffer":0,"byteOffset":421572,"byteLength":42144,"target":34963},{"buffer":0,"byteOffset":463716,"byteLength":1536,"byteStride":12,"target":34962},{"buffer":0,"byteOffset":465252,"byteLength":3072,"target":34963},{"buffer":0,"byteOffset":468324,"byteLength":58056,"byteStride":12,"target":34962},{"buffer":0,"byteOffset":526380,"byteLength":116400,"target":34963},{"buffer":0,"byteOffset":642780,"byteLength":3768,"byteStride":12,"target":34962},{"buffer":0,"byteOffset":646548,"byteLength":7488,"target":34963},{"buffer":0,"byteOffset":654036,"byteLength":10068,"byteStride":12,"target":34962},{"buffer":0,"byteOffset":664104,"byteLength":20088,"target":34963},{"buffer":0,"byteOffset":684192,"byteLength":12552,"byteStride":12,"target":34962},{"buffer":0,"byteOffset":696744,"byteLength":25056,"target":34963},{"buffer":0,"byteOffset":721800,"byteLength":34176,"byteStride":12,"target":34962},{"buffer":0,"byteOffset":755976,"byteLength":68496,"target":34963},{"buffer":0,"byteOffset":824472,"byteLength":21036,"byteStride":12,"target":34962},{"buffer":0,"byteOffset":845508,"byteLength":41736,"target":34963},{"buffer":0,"byteOffset":887244,"byteLength":38292,"byteStride":12,"target":34962},{"buffer":0,"byteOffset":925536,"byteLength":76536,"target":34963},{"buffer":0,"byteOffset":1002072,"byteLength":95172,"byteStride":12,"target":34962},{"buffer":0,"byteOffset":1097244,"byteLength":190344,"target":34963},{"buffer":0,"byteOffset":1287588,"byteLength":38676,"byteStride":12,"target":34962},{"buffer":0,"byteOffset":1326264,"byteLength":77400,"target":34963},{"buffer":0,"byteOffset":1403664,"byteLength":12024,"byteStride":12,"target":34962},{"buffer":0,"byteOffset":1415688,"byteLength":24048,"target":34963},{"buffer":0,"byteOffset":1439736,"byteLength":47652,"byteStride":12,"target":34962},{"buffer":0,"byteOffset":1487388,"byteLength":94920,"target":34963},{"buffer":0,"byteOffset":1582308,"byteLength":7728,"byteStride":12,"target":34962},{"buffer":0,"byteOffset":1590036,"byteLength":15504,"target":34963},{"buffer":0,"byteOffset":1605540,"byteLength":116076,"byteStride":12,"target":34962},{"buffer":0,"byteOffset":1721616,"byteLength":232632,"target":34963},{"buffer":0,"byteOffset":1954248,"byteLength":4860,"byteStride":12,"target":34962},{"buffer":0,"byteOffset":1959108,"byteLength":9672,"target":34963},{"buffer":0,"byteOffset":1968780,"byteLength":4860,"byteStride":12,"target":34962},{"buffer":0,"byteOffset":1973640,"byteLength":9672,"target":34963},{"buffer":0,"byteOffset":1983312,"byteLength":17892,"byteStride":12,"target":34962},{"buffer":0,"byteOffset":2001204,"byteLength":35928,"target":34963},{"buffer":0,"byteOffset":2037132,"byteLength":22920,"byteStride":12,"target":34962},{"buffer":0,"byteOffset":2060052,"byteLength":45792,"target":34963}],"buffers":[{"byteLength":2105844,"uri":"SILVER_ASM_ASM.bin"}]}